<svg xmlns="http://www.w3.org/2000/svg" xmlns:xlink="http://www.w3.org/1999/xlink" preserveAspectRatio="xMidYMid meet" version="1.1" viewBox="0.0 0.0 308.0 501.4" zoomAndPan="magnify" style="fill: rgb(0, 0, 0);">
 <defs>
  <clipPath id="__id4_sfx3yxso96">
   <path d="m0 0h307.99v501.43h-307.99z"/>
  </clipPath>
 </defs>
 <g id="__id5_sfx3yxso96">
  <g clip-path="url(#__id4_sfx3yxso96)" id="__id6_sfx3yxso96">
   <path d="m210.77 395.77c-1.1-0.31-2.2-1-3.3-0.7-0.4 0.09-0.4 0.59-0.2 0.89 0.8 0.9 2.3 1 3.4 1.31 1.3 0.3 2.7 0.39 4 0.5 0.5 0 0.7-0.91 0.1-1-1.3-0.31-2.7-0.61-4-1zm5.5-16.7c-0.7-0.11-1.4-0.41-2.1 0-0.3 0.2-0.3 0.59-0.1 0.89 0.5 0.61 1.3 0.5 2 0.5 0.9 0 1.8 0 2.6-0.1 0.8-0.09 0.8-1.29 0-1.29-0.7 0.09-1.6 0-2.4 0zm-56.9 42.89c-0.6 2.31 0 5 0.2 7.31 0 0.69 1 0.69 1 0 0.1-2.31 0.7-5 0.2-7.31-0.2-0.6-1.2-0.6-1.4 0zm-67.1-319.1c0.398 0.41 1 1.1 1.699 0.91 0.199-0.11 0.301-0.21 0.301-0.41 0-0.59-0.602-1-1.102-1.3-0.5-0.4-1.098-0.9-1.598-1.29-0.3-0.41-1 0.09-0.699 0.5 0.5 0.5 1 1 1.399 1.59zm81 272.41c-0.8-0.61-1.5-1.41-2.4-1.81-0.7-0.39-1.3 0.5-0.8 1 0.6 0.7 1.6 1.31 2.4 1.81 0.9 0.59 1.8 1.09 2.8 1.59 0.5 0.3 1-0.5 0.5-0.79-0.9-0.61-1.7-1.21-2.5-1.8zm-115.3-180.61c0.402 0.11 0.699-0.39 0.402-0.7-0.5-0.6-1.203-1.19-1.902-1.6-0.598-0.3-1.301 0.5-0.699 1 0.601 0.6 1.398 1.1 2.199 1.3zm-3.301-21.89c0.102-0.21 0.102-0.5-0.098-0.71-0.699-0.9-1.8-1.4-2.902-1.5-0.297 0-0.5 0.5-0.199 0.6 0.902 0.4 1.601 0.9 2.199 1.61 0.102 0.09 0.402 0.19 0.602 0.09 0.199 0.1 0.3 0 0.398-0.09zm82.402 170.8c0.6 0.2 1.3 0.39 1.9 0.09 0.4-0.2 0.3-0.8 0-1-0.5-0.3-1-0.2-1.6-0.3-0.5-0.09-1.1-0.29-1.6-0.09-0.2 0.09-0.3 0.3-0.2 0.5 0.3 0.5 0.9 0.69 1.5 0.8zm-26.5-2.3c12.6 8.89 28.5 10.89 43.6 9.5 0.1 0 0.1 0.09 0.2 0.09 0.4 0.21 0.8 0 1-0.2 2-0.2 4-0.5 5.9-0.8 0.3-0.09 0.3-0.59-0.1-0.59-1.9 0.3-3.9 0.39-5.8 0.59 0-0.09-0.1-0.09-0.1-0.2-0.8-0.8-1.5-1.59-2.1-2.39 2.9 0.19 6-1.5 8.6-2.81 5.4-2.6 10.4-6 15-9.69 8.6-6.81 19-15.11 22-26.2 0.1-0.5-0.6-0.71-0.8-0.21-3.9 9.71-11.9 15.8-19.8 22.3-6.8 5.61-17.4 14-26.8 13.7-1-1.9-1.8-3.79-3-5.79-2-3.41-5.3-5.71-7.6-8.91-2.3-3.09-3.9-6.7-5.8-10 1.9 1.3 4.1 2.11 6.4 2.5 0.4 0.11 0.5-0.39 0.2-0.5-3.4-1-6.2-3-8.7-5.5-0.1-0.09-0.1-0.09-0.2-0.09-2.5-3.91-5.2-7.71-8-11.41-0.4-0.59-1.4 0.2-1 0.8-0.5-0.19-1-0.3-1.5-0.5-1.3-0.5-2.6-1.1-3.8-1.69-0.4-0.2-0.7 0.3-0.3 0.59 1.3 0.8 2.5 1.71 3.9 2.41 0.9 0.5 2 1 3 1.19 2.8 4.11 5.7 8.2 8.3 12.5-3.2-2.89-6-6.3-9.6-8.69-4.7-3.11-10.6-4.41-16-5.5-0.5-0.11-0.8 0.69-0.2 0.8 6.2 1.7 13.2 3.29 18.1 7.79 3.3 3 5.8 6.71 9.7 9.1 1 1.9 2 3.9 3.1 5.81-9.8-5.91-17.3-14.61-29-17.41-0.4-0.09-0.5 0.5-0.2 0.6 8.2 2.81 14.2 6.81 20.5 12.7 3 2.8 6.3 6.11 10.4 6.7 0.2 0.21 0.3 0.41 0.5 0.71 2.1 2.7 4.1 5 5.8 7.59-4-3-8.9-5.3-13.8-5.2-0.3 0-0.3 0.4 0 0.5 6.5 0.7 10.5 4.61 15.7 8 0.1 0.31 0.3 0.5 0.4 0.81 1.2 2.5 2.2 4.69 4.3 6.19-6.7 0.2-13.3-0.3-19.8-1.69-0.8-0.7-1.8-1.11-2.5-2-0.9-1.11-1.3-2.31-1.7-3.5-0.2-0.61-1.2-0.5-1.2 0.19 0 1.5 0.8 3 1.7 4.2 0.1 0.11 0.2 0.3 0.3 0.41-6.4-1.61-12.7-3.91-18.8-7-0.4-0.8-0.8-0.11-0.4 0.2zm-29.101 47.5c1.101-0.91 2.402-1.61 3.801-2 0.3-0.11 0.601-0.41 0.601-0.7 0-0.11 0-0.3-0.101-0.41-0.2-0.3-0.5-0.5-0.899-0.39-1.601 0.5-3.101 1.39-4.203 2.69-0.598 0.5 0.203 1.31 0.801 0.81zm-10.801-13.5c1-0.61 2.102-1.11 3.102-1.61 0.898-0.39 2-0.7 2.601-1.5 0.199-0.3 0-0.8-0.301-0.8-1-0.29-2.199 0.5-3.101 1-1.098 0.6-2.098 1.3-3 2.1-0.598 0.2 0.101 1.11 0.699 0.81zm151-71.31c-0.1-0.6-0.1-1.19-0.3-1.8-0.1-0.3-0.6-0.3-0.7 0-0.2 0.61-0.2 1.2-0.3 1.8 0 0.2 0.2 0.5 0.4 0.61h0.3c0.4-0.11 0.7-0.41 0.6-0.61zm2.8 11c1.3-1.5 1.8-3.6 1.9-5.5 0-0.3-0.5-0.3-0.5 0-0.1 1.9-1.1 3.31-2.2 4.9-0.4 0.5 0.4 1 0.8 0.6zm-115.5-17.5c0.8 0.61 1.9-0.5 1.1-1.1-0.8-0.59-1.6-1.09-2.5-1.7-0.5-0.3-1.1 0.41-0.6 0.8 0.7 0.7 1.3 1.4 2 2zm83-12.89c-0.5 1.5-1.5 2.7-2.9 3.59-0.1 0-0.1 0.11-0.1 0.11-1.2 0.5-2.4 1.09-3.3 1.89-0.6 0.5 0.3 1.41 0.9 0.91 3.9-3.21 12.8-3.3 14.2 2.5 0.9 4-2 7.89-1.1 12.09 0.2 0.91 1.5 0.7 1.5-0.2 0.1-5.3 3.7-12-1.3-16-0.4-0.3-0.9-0.6-1.4-0.89 1.8-0.91 3.3-2.91 3.9-4.71 1-2.7 0.6-5.4-0.5-8-0.1-0.2-0.4-0.09-0.3 0.1 0.9 2.5 0.7 5-0.4 7.4-1 2.1-2.6 3-4 4.6-1.8-0.6-3.8-0.69-5.8-0.3 0.6-0.8 1.1-1.8 1.3-2.89 0.1-0.5-0.6-0.61-0.7-0.2zm-30.5-167.11c1.3-1.19 2.1-2.69 2.7-4.3 0.1-0.39-0.5-0.6-0.6-0.3-0.6 1.5-1.7 2.7-2.8 3.8-0.5 0.5 0.2 1.3 0.7 0.8zm14 102.2c-0.6 0.61-1.1 1.4-1.6 2.11-0.4 0.59 0.7 1.29 1 0.59 0.4-0.7 0.9-1.5 1.2-2.3 0.2-0.4-0.3-0.6-0.6-0.4zm-37.6-37c0.5 0.4 1.1 0.8 1.6 1.11 0.4 0.19 0.8-0.31 0.5-0.61-0.5-0.5-1-0.89-1.5-1.3-0.4-0.4-0.9-0.8-1.4-1-0.4-0.09-0.7 0.3-0.5 0.7 0.3 0.5 0.9 0.8 1.3 1.1zm24.5-83.195c-3.6 0.097-7.3 2.695-10.1 4.695-0.3 0.2 0 0.61 0.3 0.4 1.7-1.1 3.5-1.9 5.5-2.6 1.5-0.6 3.2-0.9 4.7-1.6 0.3-0.2 0.1-0.895-0.4-0.895zm91.1 46.305c-0.5 0.79-1 1.69-1.5 2.5-0.5 0.79 0.9 1.59 1.2 0.69 0.4-0.9 0.8-1.8 1.2-2.6 0.4-0.59-0.6-1.2-0.9-0.59zm9 65.89c0.5 0.5 1 1.2 1.5 1.61 0.3 0.19 0.7 0 0.6-0.41-0.2-0.8-0.7-1.4-1.2-2-0.5-0.59-1.1-1.3-1.8-1.59-0.5-0.21-1 0.5-0.7 0.89 0.5 0.61 1.1 1 1.6 1.5zm-152-143.2c3.1 0.597 5.1 2.699 7.4 4.597 1.2 2.801 2.6 5.301 3.3 8.301 0 0.199 0.3 0.102 0.3-0.097-0.4-2.102-0.8-4.5-1.6-6.602 2.1 1.398 4.4 1.898 6.9 2.5 0.6 0.102 1.3-0.699 0.7-1.199-1.1-0.903-2-1.199-3.3-1.5-2.1-0.5-3.8-1.403-5.5-2.602-2.6-1.801-4.8-3.699-8.1-4.097-0.4-0.102-0.5 0.597-0.1 0.699zm-2.6 8.097c0.3 0.602 0.5 1.602 1.2 1.801 0.2 0.102 0.4-0.097 0.5-0.301 0.2-0.699-0.5-1.5-0.8-2.097-0.3-0.602-1.2 0-0.9 0.597zm3.4 7.204c0.6 1.199 1 2.5 1.4 3.699 0.3 1 0.6 2.199 1.2 3.097 0.3 0.5 1.3 0.403 1.3-0.296-0.1-2.5-2-4.801-3.2-6.903-0.3-0.398-0.9 0-0.7 0.403zm136.1 141.39c0.7 0.61 1.4 1.2 2.2 1.8 0.3 0.2 0.8-0.19 0.5-0.5-0.6-0.8-1.2-1.5-1.9-2.1-0.4-0.7-1.3 0.2-0.8 0.8zm-0.5-96.8c-0.2 0.91-0.6 1.6-1 2.3-0.4 0.8 0.7 1.4 1.2 0.7 0.6-0.8 0.7-1.9 0.8-2.9-0.1-0.5-0.9-0.6-1-0.1zm-112.9 13.41c-0.3 0-0.5 0.09-0.6 0.39 0 0.7 0.7 1.3 1.2 1.7 0.3 0.2 0.9-0.09 0.7-0.5-0.2-0.7-0.7-1.59-1.3-1.59zm-10.4-3.81c-0.1 0-0.3 0-0.4 0.2-0.3 0.4 0 0.9 0.2 1.3 0.3 0.5 0.6 1 0.9 1.5 0.3 0.4 1 0 0.7-0.4-0.3-0.5-0.6-1-0.8-1.5 0-0.5-0.1-1-0.6-1.1zm25.2-38.995c-0.5 0.5-1 0.898-1.5 1.395-0.3 0.3-0.7 0.7-0.3 1.1 0.8 0.7 2.1-1.4 2.5-1.898 0.3-0.5-0.3-1-0.7-0.597zm-14.7 91.805c0.4 0.09 0.6-0.5 0.2-0.61-0.4-0.1-0.8-0.5-1.1-0.89-0.2-0.31-0.2-0.61-0.6-0.71-0.1 0-0.3 0-0.3 0.1v0.11c-0.1 0.19-0.2 0.39-0.1 0.59 0.3 0.8 1 1.2 1.9 1.41zm-29.4-18.41c-0.7 0.2-1.5 0.6-2.2 0.91-0.8 0.39-0.1 1.69 0.7 1.19 0.7-0.4 1.3-0.8 1.9-1.3 0.4-0.3 0-1-0.4-0.8zm61.6 53.8c-0.9 0.61-1.6 2.11-1.5 3.2 0.1 0.8 1.1 0.91 1.4 0.2 0.2-0.4 0.2-0.9 0.4-1.29 0.2-0.41 0.5-0.81 0.7-1.21 0.1-0.5-0.4-1.4-1-0.9zm-30.5 187.8c0.3-0.8 0.7-1.69 1.2-2.5 0.4-0.69 1-1.39 1.4-2.19 0.4-0.81-0.5-1.5-1.2-0.91-1.4 1.21-2.2 3.5-2.6 5.21-0.2 0.89 0.9 1.09 1.2 0.39zm-53.5-259.9c-0.399-0.29-0.801 0.3-0.5 0.6 0.398 0.5 0.699 1.11 0.898 1.7 0.102 0.41 0.5 0.8 0.902 0.5 0.2-0.2 0.301-0.4 0.301-0.59-0.101-1-0.902-1.71-1.601-2.21zm-3.7 157.3c0.5 0.3 0.801 0.8 1.301 1.21 0.899 0.7 2-0.41 1.199-1.21-0.5-0.59-1.3-0.9-2-1.2-0.8-0.3-1.101 0.8-0.5 1.2zm50.7-36.5c0.4-0.2 0.4-0.9 0.3-1.29-0.1-0.3-0.1-0.61-0.1-0.91 0.1-0.5-0.5-0.7-0.8-0.3-0.5 0.6-0.6 1.21-0.3 2 0.2 0.3 0.6 0.6 0.9 0.5zm15.6 0.6c-0.5 0.7-0.7 1.9 0.1 2.4 0.3 0.21 0.7-0.09 0.7-0.4 0-0.3-0.1-0.5-0.1-0.8s0-0.59 0.1-0.8c0.3-0.59-0.5-0.9-0.8-0.4zm-44.5-6.6c0.3 0 0.4-0.2 0.6-0.4 0.2-0.3 0.1-0.69 0-1-0.6-1.19-1.599-2.1-2.4-3.1-0.402-0.5-1.101 0.1-0.8 0.71 0.5 1.09 0.898 2.39 1.601 3.39 0.199 0.31 0.5 0.5 0.999 0.4zm-38.6 85.6c0.898-0.1 1.699-0.39 2.601-0.5 0.699-0.1 0.797-1.1 0-1.19-0.902 0-2.101 0-2.902 0.5-0.598 0.3-0.399 1.3 0.301 1.19zm34.398-117.3c3.402-4.5 8.402-2.5 12.502-5.2 3.6-2.4 6.1-5.1 10.3-6.69 0.3-0.11 0.2-0.61-0.1-0.5-2.1 0.39-4 1.09-5.8 2.29-2.5 1.5-4.5 4.21-7.4 5-2 0.6-4.2 0-6.201 0.71-2 0.69-3.301 2-4.598 3.69-0.601 0.81 0.699 1.5 1.297 0.7zm1.301-7.89c0 0.29 0.5 0.19 0.5-0.11 0-1.7-0.199-3.89-1.199-5.39-0.301-0.5-1.102-0.21-0.899 0.39 0.297 0.8 0.699 1.61 1 2.5 0.297 0.8 0.5 1.7 0.598 2.61zm-35.699 103.19c-0.7 0-1.399-0.1-2.102-0.1-0.898 0-0.898 1.3 0 1.3 0.703 0 1.402 0 2.102-0.09 0.699 0.09 0.699-1.11 0-1.11zm131.6-137.1c-0.1 0.6-0.1 1.1-0.1 1.7 0 0.8 1.3 0.8 1.3 0 0-0.6-0.1-1.1-0.1-1.7-0.1-0.7-1-0.7-1.1 0zm23.8 25.6c0.3 0.1 0.5-0.3 0.4-0.5-0.4-0.6-0.9-1.19-1.2-1.8-0.4-0.6-0.5-1.39-0.9-2-0.3-0.5-1.2-0.3-1.2 0.3 0 0.81 0.6 1.7 1.1 2.4 0.4 0.7 1 1.3 1.8 1.6zm-29.3 49.61c0.4 0.39 0.5 0.79 0.6 1.39 0.1 0.61 1.2 0.31 1-0.3-0.2-0.59-0.6-1.2-1.1-1.59-0.3-0.3-0.8 0.09-0.5 0.5zm117.8 37.7c-0.1 0.09-0.3 0.19-0.4 0.3-0.6 0.5-1.4 0.79-2.1 1h-0.2c0.5 0.2 1 0.5 1.5 0.79 0.7-0.2 1.5 0.21 2.1-0.59 0.5-0.5 0-1.61-0.9-1.5zm-3.2 0.09c0.4-0.09 0.7-0.2 1.1-0.4 0.8-0.39 1.7-1.19 1.9-2.19 0.1-0.81-0.4-0.2-0.7 0-0.4 0.3-0.8 0.59-1.2 0.89-0.4 0.61-0.7 1.2-1.1 1.7zm-5.7 8.3c0.1 0.5 0.1 0.91 0.4 1.3 0.3 0.4 1.1 1.11 1.6 0.81 0.8-0.31-0.5-1.61-0.8-1.81-0.4-0.19-0.8-0.3-1.2-0.3zm-25.8-6.2c0.9-0.89 1.7-1.89 2.4-3-5.1 4.61-10.9 8-17.6 10.11h-0.2c-0.4 0.5-0.8 1.09-1.2 1.59-0.9 1.11-1.9 2-3 2.8 1.7-0.3 3.3-0.5 4.9-0.89 5.2-3.11 10.4-6.5 14.7-10.61zm-17.7 12.4c-1.3 0.3-2.6 0.5-3.9 0.6-2.9 1.9-6 3.61-8.4 6 3.6-2.39 7.7-4 11.6-6.19 0.2-0.2 0.5-0.31 0.7-0.41zm-10.6 8c0.5 0.21 1 0.5 1.4 0.71 0.9 0.5 1.7 1.09 2.5 1.79 2.2 0.41 4.2 1.3 5.7 2.91 0.8 0.8 1.3 1.8 1.7 2.8 1.6 0.39 3.3 1 5 1.5-2.1-1-4-3.71-5.8-5.3-2.7-2.41-5.6-4.81-9.5-4.81h-0.2c-0.2 0.2-0.5 0.31-0.8 0.4zm3.7-1.2c0.2 0.11 0.5 0.11 0.7 0.2-0.1-0.09-0.1-0.29-0.1-0.4-0.1 0.11-0.3 0.2-0.6 0.2zm1.9-0.5c8.1 3.41 16.2 8.91 23.3 14 0.1 0.11 0.2 0.2 0.1 0.41 2.5 0.2 5 0 7.4-0.91-3.4-3.89-10.9-6.39-15.3-8.2-4.9-2-9.8-3.69-14.8-5.39 0 0-0.1 0-0.1-0.11-0.2 0.11-0.4 0.2-0.6 0.2zm2.8-0.7c5.7 2.2 11.3 4.5 16.8 7 3.5 1.61 9.2 3.61 11.7 7 0.7-0.3 1.3-0.6 2-1 0.7-0.39 1.2-0.89 1.8-1.39-8.1-6.61-16.4-9.8-26.1-13.41-0.2-0.09-0.2-0.2-0.3-0.3-1.4 0.5-2.8 1-4.3 1.5-0.5 0.3-1 0.41-1.6 0.6zm7.2-2.5c9.4 1.7 18.6 7.4 25.5 13.7 0.8-0.8 1.6-1.5 2.6-2 0.3-0.2 0.6-0.3 1-0.39-9.1-5.41-18-9-28.3-11.5-0.3 0-0.6 0.09-0.8 0.19zm3.2-1c9.6 1.9 19.1 6.31 26.9 12 1.3-0.39 2.5-0.5 3.7-1-1.5-1.5-4.9-3.6-6-4.39-1.8-1.3-3.8-2.5-5.8-3.41-4.8-2.2-10.1-2.8-15.2-4.09-1.2 0.2-2.4 0.5-3.6 0.89zm6.5-1.6c9.3 2 17.5 5.3 24.1 12.5 0.8-0.29 1.7-0.79 2.6-1.59-4.8-6.91-16.6-9.7-24.3-10.7-0.3 0-0.4-0.21-0.5-0.41-0.6 0.11-1.3 0.11-1.9 0.2zm5.1-0.5c4.1 0.71 8.1 1.91 11.8 3.71 3.4 1.59 8.1 3.79 10.3 7.09 0.5-0.59 1.1-1.2 1.5-1.8-4.9-5.2-12.8-7.4-19.5-9.09-1.3 0-2.7 0-4.1 0.09zm-2.5 20.6c-5.6-2.89-11.3-6.1-16.8-9.39 2.4 2.09 4.5 4.7 6.1 6.79 3.5 1.1 7.2 2.21 10.7 2.6zm-26.4-10.39c-0.2-0.11-0.3-0.21-0.5-0.3-0.8-0.41-1.8-0.7-2.6-1.11-0.8 0.41-1.5 0.91-2.2 1.41 1.8-0.11 3.6-0.11 5.3 0zm-2.2-5.91c0.6-0.5 1.2-0.89 1.9-1.39 0 0-0.1 0-0.1-0.11-0.4-0.8-0.3-1.59-0.3-2.39-0.4 1.3-0.9 2.59-1.5 3.89zm2.2-26.5c0.5 2.11 0.9 4.3 1.1 6.5 0.5 4.61 0.1 9.2-1 13.5 0 0.7 0.1 1.3 0.1 2 0.1 0.91 0.3 1.8 0.2 2.61 1.3-0.81 2.6-1.61 3.9-2.5 0-0.11-0.1-0.11-0.1-0.2-1.1-8.8-0.9-18-1.2-27-1.1 1.5-2.1 3-2.9 4.79 0 0.21-0.1 0.21-0.1 0.3zm4.2-6.7c0.9 9.11 2.2 18.7 1.5 27.81 0.4-0.31 0.7-0.61 1.1-0.91 0.9-0.9 1.7-1.79 2.5-2.79 0-0.11-0.1-0.11-0.1-0.21-1.5-8.79-2.3-18.2-2.7-27.2-0.7 1.11-1.5 2.2-2.3 3.3zm3.2-4.89c1.1 9.09 2.3 18.39 3 27.5 0.9-1.41 1.8-2.8 2.6-4.21-0.1-0.09-0.2-0.29-0.3-0.59-1.1-10-1.8-20.11-2.4-30.2-1 2.39-1.6 5-2.8 7.29 0 0.1 0 0.21-0.1 0.21zm3.9-9.5c1.2 10 2 20.09 3.1 30.09 1-2.09 1.9-4.2 2.7-6.3-0.2 0-0.4-0.2-0.5-0.5-2.3-8.5-3-17.59-3-26.4-0.5 0.5-1 1.11-1.5 1.7-0.3 0.41-0.6 0.91-0.8 1.41zm3.4-4.11c0.2 8.9 1.5 17.4 3.1 26.11 0.7-1.91 1.5-3.71 2.2-5.61-2-6.6-3.6-15.5-2.2-22.5-1.2 0.7-2.2 1.31-3.1 2zm6.3 17.7c0.8-2.2 1.6-4.39 2.4-6.59-1.6-4.41-1.7-9.91-2-14.71-0.9 0.41-1.8 0.8-2.7 1.3-0.8 6.91 1.4 13.3 2.3 20zm1-21.7c0.3 2.81 0.6 5.5 1.1 8.2 0.3 1.61 0.7 3.2 1 4.8 0.6-1.6 1.1-3.19 1.7-4.8-0.4-1.2-0.4-2.59-0.5-3.7-0.2-2-0.4-4-0.4-6-0.9 0.61-1.9 1-2.9 1.5zm3.9-2.1c0.1 2.5 0.4 4.91 0.9 7.3 1.3-3.8 2.7-7.59 4.1-11.39-1.4 1.59-3.1 3-5 4.09zm5 3.1c0.1 0 0.1-0.1 0.2-0.1 0.8-0.5 1.6-1.09 2.4-1.7-0.2-1.3-0.5-2.5-0.8-3.8-0.6 1.8-1.2 3.71-1.8 5.6zm0.8 0.61c-0.4 0.29-0.9 0.59-1.4 0.89-0.7 2.11-1.5 4.2-2.2 6.2 0.4-0.3 0.9-0.39 1.4-0.7 0.6-0.3 1.1-0.8 1.6-1.19 1.1-0.91 2-1.91 2.8-3-0.1-1.31-0.2-2.61-0.4-3.91-0.5 0.71-1.1 1.3-1.8 1.71zm2.4 3.59c-0.7 1-1.5 1.91-2.5 2.7-0.9 0.8-2.4 2-3.7 1.71-0.1 0-0.1 0-0.1-0.11-1.1 2.9-2.2 5.81-3.4 8.7 3.7-2.39 7.5-4.8 9.4-9 0.1-0.09 0.2-0.2 0.3-0.2v-3.8zm0 5.2c-2.1 4.3-6 7.1-10 9.41-0.1 0.09-0.2 0.09-0.3 0.09-0.8 1.91-1.6 3.8-2.4 5.71 4.4-2.5 9-5.71 12.1-9.5 0.1-0.11 0.2-0.11 0.3-0.11 0-0.5 0.1-1 0.1-1.5 0-1.39 0.1-2.8 0.2-4.1zm-0.5 6.5c-3.2 4.5-8.3 7.8-13 10.5-0.8 1.8-1.5 3.6-2.3 5.41 5.4-2.91 10.2-6.2 14.8-10.31 0.2-1.89 0.4-3.8 0.5-5.6zm-0.7 6.91c-4.4 4.39-9.7 8.19-15.4 10.8-0.6 1.39-1.2 2.7-1.8 4.09 6.1-2.8 11.7-6.39 16.6-11.09 0.3-1.21 0.5-2.5 0.6-3.8zm-0.9 5.09c-4.6 4.8-10.8 9.91-17.2 11.6-0.7 1.31-1.4 2.61-2.2 3.81 6.6-2.31 12.6-5.81 17.8-10.61 0.7-1.5 1.2-3.09 1.6-4.8zm-90.9 46.8v0h-0.2 0.2zm-1 0.11c-0.2-0.11-0.4-0.31-0.5-0.5-0.5 0.3-1 0.5-1.5 0.69 0.6 0 1.3-0.1 2-0.19zm49.3-68.31c0.3-0.6 0.7-1.19 1-1.8-0.8-1.2-1.6-2.5-2.6-3.59-0.2-0.21-0.4-0.41-0.6-0.71 0.7 2.21 1.4 4.21 2.2 6.1zm-2.7-7.89c1.6 1.59 2.9 3.59 4.1 5.5 0.7-1.21 1.4-2.5 1.9-3.8-0.1 0-0.1 0-0.2-0.11-2.2-4.2-5.5-7.2-9-10.09 1.4 2.5 2.3 5.5 3.2 8.5zm6.1 1.2c0.1-0.2 0.1-0.31 0.2-0.5 0.6-1.7 0.6-3.31 0.7-4.91-2-2.7-5.3-4.9-7.8-6.7-2.8-2-5.7-3.7-8.6-5.39v1.8c0.4 0.2 0.8 0.39 1.2 0.7 1.2 0.8 2.2 1.69 3.1 2.69 4.5 3.31 8.7 7.31 11.2 12.31zm-16.1-25.61c0.4 2.3 0.6 4.61 0.7 6.8 0.1 0 0.1 0 0.2 0.11 3.6 2 7.2 4.39 10.4 6.89 1.9 1.5 4.2 3.2 5.9 5.11 0-0.41 0.1-0.91 0.2-1.3 0.3-1.61 0.2-2.2 1.1-3.61 0.1-0.09 0.1-0.2 0.2-0.2-6.2-5-12.5-9.19-18.7-13.8zm-0.2-1.1c6.8 3.8 13.3 9.21 19.1 14.4 1.6-2.1 3-1.69 3.3-6.5v-0.89c-6.5-8.11-16.4-11.41-25.1-16.61 0.6 1.4 1.1 2.9 1.5 4.4 4.3 1.6 8.3 3.91 12 6.6 2.1 1.5 4.4 2.81 6.4 4.5 1.6 1.31 2.7 3.11 4.3 4.31 0.3 0.19 0 0.59-0.3 0.5-1.4-0.91-2.3-2.2-3.5-3.41-1.8-1.59-4.1-2.9-6.1-4.2-4.1-2.7-8.1-4.89-12.6-6.89 0.5 1.29 0.8 2.5 1 3.79zm-1.4 10.21c0-4.41-0.6-8.61-1.7-12.71-1.5 1.8-2 5-2.6 7.21-0.6 2-1.1 4-1.7 5.89 2-0.7 4-0.89 6-0.39zm-6.7 0.59c0.7-3.09 1.5-6.09 2.4-9.09 0.6-1.81 1-3.81 2.3-5.11-0.6-2.3-1.4-4.5-2.3-6.8-5.7 7.41-11.6 16.5-13.5 25.91 0.2 0.39 0.5 0.8 0.8 1.09 0.5 0.6 0.1 1.41-0.5 1.5 0.3 0.1 0.6 0.21 0.9 0.3 1.3-1.5 2.8-3 4.4-4.39 1.2-7.41 4.5-14.61 8.1-21.11 0.3-0.6 1.2-0.1 0.9 0.5-3.6 6.3-6.7 13.11-8.5 20.2 1.5-1.29 3.3-2.29 5-3zm-11.5 7.21c-0.1 0-0.1 0 0 0-0.1-0.11-0.1 0-0.1 0h0.1zm-1-1.11c-3.7-4.89-1.9-14.3-0.3-19.5-3.3 1.31-7.3 2-10.9 1.5-4.3-0.6-6.6-4.1-10.8-4.8-0.6-0.1-0.4-1 0.1-1 1.9 0.2 2.9 0.8 4.6 1.61 3.8 1.69 7.2 2.29 11.3 1.59 1.4-0.3 2.8-0.7 4.1-1.2 0.3-1.39 1-2.8 1.3-4.2 0.4-1.6 0.7-3.19 0.8-4.9 0-0.5 0.8-0.5 0.8 0 0.1 2.5-0.1 5.8-1.2 8.3 5.4-2.7 9.2-7.7 9.4-14.3 0-0.29 0.1-0.6 0.3-0.79-3.5-5.21-6.1-11.41-5.4-17.81 0-0.1 0.1-0.19 0.1-0.3-0.7 0-1.4 0-2-0.1 0 0.21 0 0.3-0.2 0.5-1.4 1.6-1.7 4.1-2.1 6-0.5 2.4-1 4.8-1.2 7.21 0 0.5-0.8 0.5-0.7 0 0.2-4.31 0-10.41 2.7-14-0.7-0.21-1.4-0.5-2.1-0.81 0 0.1-0.1 0.31-0.2 0.4-6.2 5.6-6.8 17.6-6.1 25.3 0 0.3-0.5 0.4-0.5 0.11-1.4-8-1.1-20.5 5.4-26.5-0.9-0.5-1.9-1.21-2.8-1.81 0 0.2-0.1 0.31-0.3 0.5-9.1 7.6-12.8 22.4-15.4 33.4-0.1 0.3-0.5 0.2-0.5-0.09 0-6.5 2.6-12.71 5.1-18.61 2.5-5.7 4.8-11.89 9.6-16 0.1-0.1 0.2-0.1 0.3-0.2-0.1-0.1-0.3-0.19-0.4-0.3-2.2 4.4-8.2 6.11-14.4 6.3-0.1 0.2-0.2 0.31-0.4 0.4-2.5 0.7-4.4 4.8-5.6 7-1.4 2.41-2.7 5-3.8 7.6-0.2 0.5-0.9 0.31-0.8-0.19 1.3-3.81 2.9-7.41 5.1-10.91 0.7-1.09 1.5-2.8 2.6-3.9-2.9-0.1-5.7-0.5-7.9-1.1 0 0.1-0.1 0.1-0.2 0.2-2.4 1.21-3.4 4.3-3.8 6.71-0.1 0.39-0.7 0.29-0.7-0.11 0.1-1.8 0.5-3.5 1.3-5.1 0.4-0.79 0.9-1.79 1.7-2.29-0.2-0.11-0.4-0.11-0.6-0.21-4-1.6-7.6-5.9-9.4-9.79-0.5-1.21-0.8-2.41-1.1-3.71-4.7 4.5-8.3 8.71-7.2 15.9 0.2 1.4 0.4 2.81 0.7 4.2 1.4-2.89 3.7-5.5 5.7-7.8 0.3-0.3 0.7 0.1 0.4 0.41-2.6 3.39-4.7 6.5-5.6 10.39 0.2 1.5 0.5 3.11 0.6 4.61 0.6 5.5 1.8 10.39 6.2 14.19 5.3 4.6 12.5 3.9 18.9 3.31 1.5-0.11 1.5 2.19 0 2.29-8.7 0.71-17.5-0.7-22.6-6.6-1.3 3.7-1.7 7.9-4.2 11.1-2.1 2.6-5.2 4-8.3 5.1-2.2 0.8-4.6 1.7-7 1.5s-4.5-1.6-7-1.6h-1.6c5.5 1 11 2.4 16.2 3.8 7-8.59 19.5-11.5 30.1-9.7 11.7 2 22.4 9 28.4 19.2 0.2 0 0.4 0.1 0.5 0.21 0-0.11 0.1-0.11 0.1-0.11 0.6 0 0.7-0.19 0.9-0.5zm-2.4 0.2c-5.8-9.2-15-15.2-25.8-17.2-6.1-1.1-12.9-1.1-18.6 1.6-4.8 2.3-8.1 6.3-12.1 9.6h1.8c2.9 0.2 5.7 0.91 8.3 2 1.2-1.09 2.1-2.39 2.2-4.2 0-0.6 0.9-0.6 0.9 0 0 1.81-0.7 3.5-2.1 4.7 1.7 0.7 3.3 1.61 4.9 2.5 0.8-1.59 1.8-3.09 2.4-4.8 0.7-1.79 1.1-3.7 1.3-5.59 0-0.41 0.7-0.41 0.7 0-0.2 3.59-1.1 8.09-3.4 11 1.9 1.19 3.8 2.39 5.6 3.69 0.2-1 0.7-1.8 1-2.8 0.4-1.39 0.5-2.8 0.5-4.2 0-0.5 0.8-0.5 0.8 0 0.1 2.2 0.1 5.81-1.4 7.61 0.4 0.29 0.9 0.59 1.3 0.89 1.7-1.39 2.4-5.19 2.9-7.1 0.6-2.59 0.9-5.29 1-8 0-0.5 0.8-0.5 0.8 0 0.2 3.41-0.1 6.71-1 9.91-0.3 1.09-0.6 2.59-1.2 3.89 2.6-1.39 5.4-2.5 8.2-3.3 0.2-1.2 0.7-2.4 1-3.59 0.3-1.41 0.3-2.81 0.4-4.11 0-0.5 0.7-0.59 0.8-0.09 0.4 2.2 0.5 5.29-0.6 7.39 0.9-0.19 1.8-0.39 2.6-0.5 0.2 0 0.5-0.1 0.7-0.1 0-0.2 0-0.29 0.1-0.5 0.1-0.7 0.1-1.4-0.1-2.09-0.1-0.5 0.6-0.7 0.8-0.2 0.2 0.59 0.5 1.79 0.4 2.7 4.6-0.5 10-0.2 14.9 0.89zm-73.6-14.89c0.6 0 1.2-0.11 1.8-0.11 1.1 0 2.1 0.2 3.1 0.4v-0.1c2.8-8.6 5.1-17.4 6.9-26.3-0.4 0.3-0.9 0.61-1.3 1 0.1 0.4-0.2 0.8-0.6 0.8h-0.4c-0.1 0.1-0.2 0.2-0.4 0.31-2.8 7.79-5.5 15.59-7.2 23.69-0.1 0.4-0.8 0.31-0.7-0.19 1.5-7.5 3.2-14.81 5.8-21.91-0.6 0.41-1.2 0.91-1.8 1.3-2.9 6.8-4.6 13.4-5.2 21.11zm-1 0.09c0-6.7 1.4-13.7 4.2-20-2.8 2-5.7 3.91-8.3 6.1-2.5 4.5-4.8 9.1-6.8 13.9h0.1c0.2-0.2 0.5-0.4 0.9-0.2 1 0.3 2 0.5 2.9 0.61 1.8-5.71 4.5-11.61 7.1-17.11 0.3-0.6 1.3-0.2 1.1 0.4-1.9 5.5-4.3 11.5-7.2 16.71 2.1 0.19 4-0.21 6-0.41zm-11.7 0c1.4-3.8 2.9-7.5 4.7-11.09-3 3.09-5.1 7.09-7.1 10.89 0.8 0.11 1.6 0.11 2.4 0.2zm-2.1-2.8c2.4-4.6 5-8.5 8.5-12.1-1.6 1.2-3.4 2.4-5.4 3.6-0.1 0-0.1 0.1-0.2 0.1 0.1 0.11 0.1 0.2 0.1 0.3-0.5 1.9-1.7 3.6-2.4 5.4-0.2 0.91-0.4 1.8-0.6 2.7zm13-16.1c0.1-0.1 0.2-0.19 0.4-0.3 2.5-2 5.1-4 7.7-5.89-1.5-0.41-3.1-0.81-4.5-1.41-0.5 3.1-1.8 5.5-3.6 7.6zm3.2-16.19c2.3 0.69 4.7 1.39 7.1 1.79 2.5 0.4 5 0.4 7.4 0.8 0.3-0.2 0.6-0.4 0.9-0.7-5.6-0.6-11.1-2.6-16.4-4.6 0.5 1 0.8 1.8 1 2.71zm17.7 0.29c0.9-0.7 1.8-1.4 2.8-2 0.2-0.1 0.4-0.2 0.6-0.2-0.1-0.5-0.2-1.09-0.3-1.59-3.5 0.19-6.8-2.41-10.1-3.31-4.7-1.19-9.6-2-14.3-3.3-0.4-0.1-0.2-0.7 0.2-0.7 4.6 0.6 9.2 1.31 13.7 2.31 3.6 0.79 6.8 2.39 10.3 3.5-0.1-0.71-0.2-1.41-0.2-2.11h-0.3c-6.2-1.5-12.1-4-18.4-5.39-0.6-0.11-0.3-1 0.2-0.91 1.6 0.3 3.3 0.6 4.9 0.91-0.9-0.5-1.8-1-2.5-1.71-3.8 0.71-7.1 2.4-10.2 4.9 0 0-0.1 0-0.1 0.1 0.1 0.1 0.2 0.1 0.3 0.21 0-0.31 0.2-0.61 0.6-0.5 8.3 1.39 16.7 3.79 24.6 6.59 1 0.3 0.6 1.91-0.4 1.6-8-2.4-16.2-4.6-24.2-7.1 1.4 1.3 2.6 2.8 3.5 4.41 6.3 1.89 12.7 3.89 19.3 4.29zm-4-11c2.3 0.6 4.6 1.4 6.7 2.4v-0.6c0.1-1.09 0.4-2.09 0.9-3.09-2.3 0.89-5 1.29-7.6 1.29zm-6.6 46.8c1 0.2 2 0.3 3.1 0.2 1.1-12.2 7.2-23.29 10.3-35-1.5 1.21-3 2.3-4.5 3.5 0.4 0.1 0.7 0.5 0.5 1.1-4.2 9.7-7.2 19.8-9.4 30.2zm4.5-28.09c-1.9 9.29-4.3 18.39-7.5 27.39v0.11c0.8 0.19 1.6 0.39 2.5 0.5 1.5-10.5 4.4-20.61 8.4-30.5-1.2 0.79-2.3 1.59-3.4 2.5zm-11.2 0c1.9 0.19 4 0.5 5.9 0.89 2.1-1.6 4.3-3.3 6.5-4.89-4.2 0.09-8.8-1.31-12.6-2.81 0.1 0.81 0.2 1.6 0.1 2.4 0.2 1.5 0.3 3 0.1 4.41zm20.7 22.59c0.7-0.8 1.3-1.7 1.7-2.59 1.3-2.61 1.9-5.5 3.1-8.21-0.5-0.7-0.9-1.5-1.3-2.29-0.6 4.39-2.3 8.79-3.5 13.09zm-0.2-29.7c0.3 0 0.5 0.11 0.5 0.5-1.3 12.2-9.3 22.61-10.7 34.9h0.3c3.7-0.6 7.3-2.5 9.7-5.29-0.3 0.09-0.6-0.11-0.5-0.41 1.2-4.59 1.9-9.59 3.5-14.09 0-0.11 0.1-0.21 0.2-0.21-0.5-1.4-1-2.9-1.2-4.6-0.1-0.6-0.2-1.19-0.2-1.8-0.4 3.61-1.7 7.2-2.6 10.7-1.1 4.41-2 8.91-3.2 13.3-0.1 0.4-0.7 0.2-0.6-0.2 1.1-7.9 2.4-17.69 5.8-25 0.1-0.19 0.3-0.19 0.4-0.19 0-0.31-0.1-0.61-0.1-1-0.1-0.11-0.2-0.21-0.3-0.41-0.1-0.9-0.1-1.8 0-2.59-0.1-1.31-0.3-2.61-0.5-3.91-0.1 0-0.3 0.1-0.5 0.3zm42.9-11.3c0.8-0.5 1.6-1.09 2.4-1.9-0.2-0.19-0.5-0.4-0.7-0.6-0.1 0-0.2 0.1-0.3 0-4.5-0.5-8.7-4-12.4-6.2-0.3-0.2 0-0.7 0.3-0.5 2 1.11 4.2 1.9 6.3 2.8 0.6 0.31 1.3 0.5 1.9 0.81-0.2-0.21-0.5-0.31-0.7-0.5-4.4-2.61-7.8-6.41-9.2-11-3.9 0.29-6-5.5-9.8-5.41-0.4 0-0.4-0.5 0-0.59 1.7-0.11 3 0.69 4.4 1.59 1.4 0.91 3.4 2.8 5.2 3.3-0.3-1.3-0.5-2.7-0.4-4.2-2.2-1.6-3.9-2.5-6.6-2.9-1.1-0.2-2-0.4-3-0.9-3.1-1.39-4.6-4.6-7.6-6.2-0.3-0.19-0.1-0.8 0.3-0.6 3.5 1.41 5.2 4.8 8.9 5.8 1.5 0.4 2.8 0.61 4 0.8-2-1.6-3.8-3.3-5.3-4.9-3.1-3.4-6.5-7.6-7.8-12.2-3.8 0.1-7.5 0.7-10.9 2.5-2.4 1.2-3.6 3.3-3.1 5.7l0.1 0.1c5.2 9.3 16.1 11.8 24.1 18 3.2 2.5 4.2 5 6.4 8.11 3.1 5.19 8 7.29 13.5 9.09zm-29.5-53.4c-1.4-4.69 1.2-10.3 0.3-15-0.1-0.6 0.7-0.8 0.9-0.19 0.8 2.59 0.6 5 0.4 7.69-0.1 1.31-0.1 2.6-0.1 3.9 0.8-2.2 1.6-4.5 1.7-7 0.1-3 0-5.4 1.5-8.09 0.9-3.81 1.3-7 4.2-10.21 3-3.29 6.9-5.29 11.1-6.6 0.4-0.1 0.6 0.5 0.2 0.6-4.2 1.4-8.1 3.6-10.9 7-1.7 2.1-2.3 4.21-2.7 6.5 3.8-4.4 9.6-6.79 15.2-7.29 1.6-1.81 3.5-3.41 5.6-4.91 3.2-2.3 6.3-2.7 10-3.7 0.3-0.1 0.6-0.2 0.9-0.3-5.2-5.8-13.4-11.594-20.7-5-3 2.7-4.6 5.8-8.6 6.6-0.1 2.2-0.8 4.4-1.9 6.31-1.5 2.39-3.5 4.19-5.9 5.39v0.11c-4.1 8-6.8 18.29-3.9 27.09 0.1 0.3 0 0.5-0.1 0.7 0.6 0.4 1.1 0.9 1.6 1.5 0-0.29 0-0.5 0.1-0.79 0.2-1.71 0.6-3 1.1-4.31zm12.7-39.5c1.7-1.3 3.3-2.9 4.9-4.3-1 0.3-2 0.7-3.1 0.9 0 0.21-0.1 0.3-0.1 0.5-0.1 0.3-0.3 0.5-0.6 0.5-0.3 0.9-0.7 1.71-1.1 2.4zm3.3-7.9c2.5-3.396 5.2-6.595 8.1-9.697-0.1-0.097-0.1-0.199-0.1-0.301 0.4-2.597 1.6-5 3.3-7 0.2-0.296 0.7 0.102 0.5 0.403-1.2 1.801-2 3.597-2.6 5.597 2.5-2.597 5.1-5 7.8-7.296-0.1-0.102-0.1-0.204-0.1-0.301 0.1-0.5 0.4-0.903 0.6-1.403 0.3-0.5 0.5-1 0.8-1.5 0.2-0.296 0.7-0.097 0.6 0.204-0.2 0.5-0.4 1-0.6 1.597-0.1 0.102-0.1 0.301-0.2 0.403 4.6-3.704 9.5-7 14.6-9.801-6.5 2.801-13.1 5.597-18.8 9.301-6.6 4.398-11.2 12.199-13.9 19.794zm36.9-30.294c-3.2 1.898-6.2 3.796-9.2 5.796 1.4-0.296 2.8-0.699 4.1-1.199 0.1-0.097 0.1-0.097 0.2-0.199 1.4-1.801 3.2-3.102 4.9-4.398zm-6 5.796c-1.5 0.602-3.1 0.903-4.7 1.102-1.5 1.102-2.9 2.102-4.4 3.199 2.4-0.597 4.8-1.199 7.2-1.699h0.1c0.6-0.801 1.2-1.699 1.8-2.602zm-2.3 3.5c-2.4 0.801-4.9 1.5-7.4 1.903-0.2 0-0.4-0.102-0.5-0.199-1.7 1.398-3.4 2.796-5.1 4.296 4.2-1.5 8.4-2.898 12.4-5 0.2-0.398 0.4-0.699 0.6-1zm-1.3 2.102c-3.8 2.102-7.8 4-12 4.801-0.2 0-0.4-0.102-0.4-0.199-1.6 1.5-3.2 3-4.7 4.597 4.6-1.199 9.1-2.5 13.5-4.301h0.2c1.2-1.597 2.3-3.296 3.4-4.898zm-4.3 5.699c-4.5 2-9.2 3.699-14.1 4.699-1.2 1.301-2.4 2.602-3.5 3.903 3.9-1.102 7.9-2.102 11.8-3.199 2-1.602 3.9-3.403 5.8-5.403zm-18.8 13.097c-0.8 0.1-1.6 0.31-2.3-0.1-0.5 0.6-1 1.3-1.4 2 1.5-0.59 3-1.3 4.4-2-0.2 0-0.4 0.1-0.7 0.1zm11.2-6.296c-3.3 1.102-6.7 2.199-10.1 3.102-0.3 0.097-0.6-0.102-0.7-0.301-0.7 0.801-1.3 1.597-1.9 2.395h1.2c0.9 0 1.8-0.09 2.8-0.2 0.2 0 0.3 0 0.4 0.11 2.9-1.504 5.6-3.208 8.3-5.106zm-29.8 54.796c0 0.2-0.1 0.4-0.3 0.5-2.4 8 1.6 14.9 7.3 20.4 3.6 3.5 10.6 8.2 16.2 9.8-0.8-1-1.5-2.2-2.2-3.39-3.3-3-6.4-6.31-9.8-9.31-2.8-2.5-4-5.5-5.2-9-0.1-0.3 0.4-0.5 0.5-0.1 1 2.3 2 5 3.9 6.8 1.5 1.4 3.3 2.5 4.9 3.7 1 0.7 1.9 1.5 2.9 2.41-2.3-4-5.3-7.61-6.9-11.81-0.3-0.9-0.6-1.8-0.8-2.8-0.1 0-0.2-0.1-0.3-0.2-2.3-3.1-2.9-7.69-3.3-11.4 0-0.4 0.7-0.5 0.8-0.1 0.3 1.9 0.7 3.81 1.4 5.7 0.2 0.61 0.5 1.2 0.8 1.8-0.5-7.9 1.8-17.3 4.9-23.5 0.9-3.19 2.4-5.9 4.5-8.3-6.1 1.11-12.3 4.4-15.1 9.8-0.1 0.31-0.1 0.6-0.2 0.9s-0.2 0.41-0.4 0.5c-0.5 1.3-0.8 2.6-0.8 4.1-0.2 4.9-1.4 8.6-2.8 13.2v0.3zm51 79.31c-0.2-0.41-0.4-0.91-0.6-1.31-0.1 0.81-0.2 1.5-0.4 2.31 0.3-0.31 0.7-0.71 1-1zm-2.3 4.59c-0.2 0.41-0.5 0.91-0.7 1.3 1.2-1.5 2.4-3 3.7-4.39-0.1-0.11-0.1-0.31-0.2-0.41-0.9 1.2-1.8 2.3-2.8 3.5zm-10.3 20.91c0.2 2 0.6 3.8 1.2 5.39 0.7-2 1.4-4.39 1.5-4.8 0.9-2.29 1.9-4.7 3-6.9 2.3-5 5.1-10.3 9.2-14.19-0.3-0.71-0.6-1.5-0.9-2.21h-0.2-0.1c-6.1 6.8-10.2 14.3-13.7 22.71zm0.3-7.81c-0.3 1.6-0.4 3.4-0.4 5.2 1.8-5.1 4.5-9.8 7.6-14.3-0.6 0.7-1.3 1.3-2 1.91-1.8 2.5-3.5 4.79-5.2 7.19zm0.8-3.9c-0.1 0.5-0.3 1-0.4 1.6 0.6-0.89 1.2-1.89 1.8-2.8-0.5 0.3-1 0.5-1.5 0.8 0.1 0 0.2 0.2 0.1 0.4zm14.4-12.7c0.1 0.2 0.2 0.41 0.3 0.6 0.2 0 0.5 0 0.7 0.1-0.3-0.29-0.7-0.5-1-0.7zm-28.3-113.09c-0.4 0.59-0.8 1.19-1 1.89-0.4 1.2-0.5 2.4-0.5 3.7 0 0.5-0.7 0.5-0.7 0 0-1.3 0-2.8 0.4-4.2-4.5 3.61-7.7 8.5-8.3 14.61-0.1 0.69-0.9 0.79-1.2 0.39-2.8 8.3-4.5 19-1.1 26.5 1.8 3.9 4.8 7.11 6.7 11 2.3 4.7 4 9.5 9 12 0.3-0.1 0.7-0.1 0.9 0.3 1.6 2.7 2.4 5.81 2.6 8.9 0 0.41-0.7 0.5-0.8 0.1-0.4-2.8-1.4-5.3-2.7-7.69-0.2 0.09-0.5 0.09-0.8 0-1-0.5-1.9-1.11-2.7-1.81h-0.1c-3-0.19-6.3-1.5-9.4-3.19-0.1 0.29-0.3 0.59-0.6 0.59 1.3 7.3 5.1 11.91 11.7 15.41 2.4 1.29 3.7 2.69 5.6 4.5 3.5 3.29 6.8 4.19 11.1 4.59 0.6-4.7-0.2-9.7-3-13.7-0.2-0.3 0.3-0.6 0.5-0.3 3.2 4.2 4.9 8.91 4.2 14.1 0.8 0.1 1 1.31 0.2 1.5-0.2 0-0.3 0-0.5 0.1-0.1 0.21-0.2 0.4-0.4 0.4v0.1c0.8 6.4 2.1 11.6 5.6 17 2.7 4.1 6.1 6.21 10 8.21 5.6 1.89 10.9 5.29 15.7 8.09-0.9-1.3-2-2.59-3-3.8-1.7-0.1-3.3-0.4-4.7-0.7-1-0.2-0.7-1.7 0.2-1.7 5.3 0.11 11.3 0.9 16.4-1-6-2.7-12.1-5.89-16.7-10.7-6-6.3-10-13.19-17.7-17.9-0.6 0-1.3 0.1-1.9 0.1-0.2 0.4-0.8 0.4-1 0.11-0.5 0-0.6-0.71-0.1-0.81h0.1c0.1-1.5 0.4-2.9 0.3-4.4-0.1-1.9-0.7-3.7-1.4-5.4-0.1-0.39 0.5-0.6 0.6-0.3 1.4 2.8 2.3 6.6 1.7 9.8 0.5-0.1 1-0.2 1.4-0.3 0.2-0.3 0.6-0.5 1.1-0.3 4-0.9 7.3-2.1 10-6.1 0.5-0.69 0.8-1.4 1.2-2.1 0-0.3 0.1-0.59 0.4-0.8 1.6-3.9 1.6-8.29 0.4-12.29-1.2 0.89-2.5 1.69-3.9 2.39-0.9 0.4-1.6-0.8-0.8-1.3 8.4-4.4 10.9-13.4 13-22.2-0.3 0.11-0.7 0-1-0.2-2.2 4.2-5.1 8-9.6 10.5-5.2 3-10.1 5.81-14.7 9.5-2.4 1.9-4.4 3.7-7.4 4.31 0 0.09-0.1 0.09-0.2 0.09-0.1 0.3-0.4 0.41-0.7 0.3-0.4-0.2-0.8-0.6-1.1-1-6.8-5.5-9.5-14.2-15-20.8-0.2 0-0.4-0.09-0.6-0.3-0.3-0.29-0.5-0.7-0.6-1.1-5.2-6.3-6.2-14-5.1-22 0-0.19 0.1-0.3 0.2-0.3-0.4-0.89-0.8-1.7-1.1-2.6-0.1-0.29 0.4-0.5 0.6-0.2 1.7 3.3 3.7 6.3 5.9 9.1-0.6-2.69-0.2-5.8 0.2-8.3 0.1-0.5 0.9-0.39 0.9 0.11-0.1 1.69-0.3 3.39-0.1 5.09 0.2 1.5 0.8 2.91 1.5 4.2 0.7-1.5 1.7-2.7 3-3.6-0.3-4.19 0-8.5 0.4-12.69 0-0.41 0.6-0.41 0.6 0-0.1 4-0.2 7.89 0.6 11.69l1.8-0.9c0.8-0.29 1.5-0.7 2.3-1.1v-0.19c0.9-4.11 2.7-8.31 2.5-12.5 0-0.41 0.7-0.5 0.7-0.11 0.6 4.3-1.3 8-1.7 12.11 2.9-1.5 5.9-3.11 8.9-3.61 0.2-5.6 1.1-11.39 3.5-16.39 0.1-0.31 0.6-0.11 0.5 0.19-2 5.2-1.5 10.6-2.2 16 4.9-0.19 9.8 1.6 13.4 4.9 0-0.09 0-0.09 0.1-0.2 3.5-6 5.1-13.3 3-20.1 0-0.1-0.1-0.29-0.2-0.4-0.1 0.61-0.1 1.2-0.2 1.8-0.2 1.5-0.8 2.5-1.6 3.81-0.2 0.29-0.6 0-0.4-0.31 0.7-1.5 1-2.9 1.1-4.5 0-1-0.1-2.1 0.1-3.19-1-1.81-2.4-3.11-4-4.21-0.3 0-0.6-0.2-0.8-0.5-3.3-1.9-7.5-2.5-11.6-2.1 0 0-0.1 0-0.1 0.1-4.4 1.8-8.9 6.4-7.7 11.6 0.1 0.4-0.6 0.61-0.7 0.2-0.7-3.09 0.1-5.8 1.9-8.3 0.6-0.9 1.4-2 2.3-2.79-4.5 0.69-9.4 2.69-13.6 5.5zm30-24.504c0.1-0.102 0.1-0.204 0.1-0.403 0-0.097 0.1-0.097 0.1-0.199-0.1-0.602-0.2-1.199-0.3-1.801 0 0.102 0 0.199-0.1 0.301 0.1 0.801 0.2 1.5 0.2 2.102zm0 2.199c0 1.398 0 2.801 0.1 4.199 0.2-1.199 0.4-2.398 0.4-3.699v-0.801c0 0.102-0.1 0.102-0.1 0.199-0.2 0.102-0.3 0.102-0.4 0.102zm-19.6 45.695c-4.4 2.11-9.6 4.61-11.3 8.2-0.1 0.2-0.2 0.3-0.3 0.3 2 2.2 4.2 4.2 6.7 5.9-0.2-1-0.2-1.9-0.2-3v-0.5c0.4-3.79 2.3-8 5.1-10.9zm21.6 17.7c0.2-0.7 0.4-1.5 0.6-2.4 0.1-0.5 0.2-0.9 0.3-1.4-1.1-2.7-1.7-5.9-3.9-7.9-2.7-2.6-5.4-2-8.5-1.8-5.1 0.3-9.2 0.41-12.9 4.6 0 0.1 0 0.2-0.1 0.4 1.4-1 3-1.8 4.8-1.9 1.5-0.1 2.7 0.6 4.2 0.7 2.2 0.3 4-0.3 6.1-0.1 5.3 0.5 7.7 5.4 9.4 9.8zm-5.5 7.8c2.8-2.2 4.3-4.2 5.2-7 0 0-0.1 0-0.1-0.1-1.7-3.5-3.4-6.4-6.2-7.9 0 0.61 0 1.61-0.1 1.9-0.3 0.71-0.8 1.3-1.5 1.6-0.9 0.61-2 0.8-3 0.8 3.4 2.6 5.4 6.7 5.7 10.7zm-10.1-12.5c1 0.2 1.7 0.3 2.5 0.61 1.8 0.59 5.8 0.39 5.6-2.41 0-0.4-0.1-0.8-0.1-1.2-1.4-0.5-3-0.7-4.9-0.6s-1.2-0.1-3.2-0.1c-3.4-0.1-5.9 0.31-8.7 1.7 2.9 0.7 5.7 1.5 8.8 2zm9.5 13.11c-1.1-5.11-3.6-11.31-9.6-11.91-3.1-0.3-6-0.7-8.9-1.59 0.1 1 0.3 2 0.6 2.89 0.1 0.3 0.1 0.5 0 0.7 0.1 0.1 0.2 0.2 0.3 0.2 5.8 3.6 11.5 5.71 15.7 10.9 0.6-0.19 1.2-0.4 1.8-0.6 0-0.09 0-0.4 0.1-0.59zm7.6-23.81c-4-3.9-9.2-6.3-14.6-5.6-0.2 0.1-0.4 0.1-0.6 0.1-1.4 0.31-2.8 0.7-4.2 1.4h-0.1c-2.5 1.91-4.5 4.6-5.6 7.5 4.2-3.3 10.4-3.59 15.8-3 5.4 0.5 8.1 4.8 9.2 9.7 0.9-3.2 2-6.6 0.2-9.6-0.3-0.1-0.2-0.3-0.1-0.5zm-21.5 30.6c0 1.9-0.1 3.71 0 5.6 0 1 0.1 2 0.4 2.9 0.1 0.3 0.2 0.5 0.3 0.71 0.2 0.19 0.4 0.29 0.6 0.5l0.1 0.09c7.1-2.9 13.1-9.2 20-12.8 4.3-2.29 7.2-5.2 9.6-8.79-0.8 0.79-1.6 1.5-2.4 2.19-5.1 3.9-10.3 3-15.7 5 0.2 0.31 0.4 0.6 0.6 0.9 0.7 1-0.9 1.91-1.6 0.91-5.5-7.71-14.7-9.81-21.7-15.91-4.5-3.9-8.3-8.8-11-14.09-0.4 4.09-0.3 8.19 0.9 12.19 0.7 2.4 1.7 4.2 2.9 5.9 0-0.9 0.1-1.7 0.3-2.5 0.1-0.59 1-0.3 0.9 0.2-0.3 1.8 0.3 3.3 0.9 4.8 0.6 0.8 1.3 1.5 2 2.41 1.4 1.59 2.5 3.39 3.6 5.19-0.1-2.19 0.3-4.4 0.7-6.3 0.1-0.39 0.8-0.3 0.8 0.11-0.2 2-0.3 4.09-0.1 6.09s0.8 3.41 1.6 5.2c0 0.1 0 0.21 0.1 0.3 0.3 0.5 0.5 0.91 0.8 1.3 0-0.5 0-1 0.1-1.3 0.1-0.59 0.9-0.4 1 0.1 0.1 0.81 0.2 1.6 0.4 2.31 0.2 0.69 0.6 1.19 0.7 1.89 0.7 0.8 1.4 1.7 2.2 2.4-0.2-2.7 0.3-5.9 0.5-7.5-0.3-0.6 0.5-0.6 0.5 0zm21.8-32.5c-0.1 0.21-0.2 0.21-0.4 0.3 1.1 1.2 2.1 2.5 2.8 3.91 0.2 0.39-0.3 0.59-0.5 0.29-0.3-0.4-0.6-0.79-0.9-1.2 1 4.2-0.3 9.1-0.9 13.2-0.6 4.21-3 6.8-6.1 9.4 1.2-0.19 2.4-0.4 3.6-0.8 2.6-0.7 5.1-1.89 7.3-3.5v-0.2c0.3-5 0.5-9.69-2.3-14.1-0.4-0.59 0.6-1.2 1-0.59 1.7 2.39 2.6 5.29 3.3 8.19 0.3 1.5 0.7 3.1 0.5 4.6 0.7-0.7 1.3-1.4 1.9-2.1 2.8-3.5 5.7-8.6 5.8-13.19 0.1-4.11-1.8-7.31-4.6-9.5-0.1 0-0.2-0.11-0.3-0.21-1.3-0.9-2.8-1.7-4.4-2.2-0.3 0.2-0.9 0.1-1-0.3-0.5-0.1-0.9-0.2-1.4-0.29-0.7 3.09-1.9 5.79-3.4 8.29zm13.6 14.6v0c-0.1 0.2-0.1 0.3-0.2 0.4l0.1-0.1c0-0.1 0.1-0.19 0.1-0.3zm-4.2 21.11c-0.3-0.11-0.6-0.21-0.7-0.41-0.8 1.41-1.8 2.6-2.9 3.8 6-1.3 12.3-2.3 17.4 1.9 3.1 2.5 5.1 5.71 8.2 8.1 0.1-0.1 0.2-0.2 0.4-0.2 10.7-3.8 22.7-23.19 9.8-31.69-0.5 1-0.9 1.89-1.5 2.79-3.8 6.5-10.1 12-17.3 14.71 1.3 0.59 2.5 1.39 3.4 2.09 2 1.5 3.7 3.3 5.1 5.41 0.2 0.29-0.3 0.59-0.5 0.29-1.6-2.1-3.5-3.7-5.8-5-1.5-0.79-3.3-1.2-4.8-2-3.5 0.8-7.2 1-10.8 0.21zm7.4 64.39c-6.7-3.6-13.7-7.2-21.2-8.7 0.4 0.7 0.7 1.5 1 2.2h0.2c8.7 4.11 18.9 9 25.2 16.61-0.3-1.41-0.8-2.91-1.4-4.11-0.9-2.2-2.1-4.2-3.4-6.1 0 0.1-0.2 0.21-0.4 0.1zm-77.7 46.8c-2.7 2.9-4.6 6.5-5.6 10.4 1.7-1.7 3.6-3.29 5.5-4.09 3.4-1.41 8.2 0 11.6 0.59 5 0.91 8.7 5.3 10.1 10.1 0.7-2 1.3-4 1.5-5.89-0.6-1.41-1.4-2.61-2.5-3.71-3.2-3.2-7-5.7-10.5-8.7-3.4-0.2-6.9 0.2-10.1 1.3zm20.7 19.11c-0.8-1.8-1.4-3.71-2.4-5.3-2.6-4.11-5.5-4.5-10.1-5.31-2.7-0.5-6.4-1.3-8.9-0.3-2 0.8-3.7 2.7-5.2 4.3-0.3 2.11-0.5 4.2-0.3 6.31 4.3-2.61 6.8-7.5 12.6-6.91 4.2 0.41 9.4 2.71 9.5 7.5v0.1c1.5 0.4 2.8 1.11 3.6 2.4 0.3-0.9 0.8-1.79 1.2-2.79zm-1.6 3c-1.7-2.21-5-2.61-7.3-1.5-0.9 0.39-0.8 0.79-1.9 1.2-1 0.3-1.7 0.09-2.6 0.3-2.4 0.5-3.6 1.5-5.2 2.89 0.9 0.2 1.8 0.4 2.8 0.5 3 0.2 5.7 1.7 7.6 4 0 0 0.1 0.11 0.1 0.2 2.5-2 4.8-4.59 6.5-7.59zm-7.1 8c-0.4 0-0.4-0.11-0.8-0.5v-0.11c-0.3 0.2-0.7 0-1-0.5-0.6-0.39-1.2-0.8-1.9-1.1-2.3-1-4.2-0.5-6.5-0.79-2.6-0.3-4.5-2-7.1-2.5 0.8 2.7 2 5.39 3.6 7.59 0.3 0.41 0.2 0.8 0 1.11 3.4 0.69 7 0.3 10.4-0.7 0-0.41 0.1-0.8 0.5-0.91 1-0.5 1.9-1 2.8-1.59zm-4.6-13c1.4 0.79 3.3 1.09 4.5 2.09v0.11c1-0.11 2-0.11 3 0-0.3-5.61-6-6.7-10.7-5.61 0.8 1.5 1.8 2.61 3.2 3.41zm-13.2 5.59c1.4-0.09 2.7 0.2 4 0.8 0.7 0.31 1.3 0.61 2 0.9v-0.09c1.3-1.41 2.8-2.91 4.7-3.5 1.2-0.41 2.4-0.11 3.7-0.31 0.2 0 0.3-0.1 0.5-0.1-1.4-0.5-2.7-1.5-3.6-2.2-1.2-1.09-2.1-2.39-2.3-4-1.3 0.5-2.5 1.11-3.3 1.8-1.9 1.7-3.5 3.5-5.8 4.61h-0.1c-0.1 0.7 0 1.39 0.2 2.09zm-45.4-67.6c-1.4 1.4-2.8 2.4-4.8 3.3-0.8 0.3-1.5 0.7-2.3 1.1h1.2c1.7 0 3.4 0 5.1 0.1 0.1-1.4 0.4-2.9 0.8-4.5zm-50.6 27.8c-0.601 0.5-1.101 1-1.601 1.5-0.598 0.6-2.199 2.71-0.199 2.6 1 0 1.5-1.39 1.699-2.3 0.101-0.59 0.101-1.2 0.101-1.8zm-13.199-3.09c-0.703 0-1.402 0-2.101 0.09-0.801 0.1-1.7 0.21-2.5 0.41-0.602 0.19-1.2 0.39-1.7 0.69-0.699 0.2-0.902 0.61-0.601 1.2 0.199 1.41 2.101 1.5 3.301 0.91 0.601-0.3 1.3-1.11 1.8-1.61 0.598-0.6 1.2-1.19 1.801-1.69zm9.598-14.5c-0.598-0.41-1.301-0.81-2-0.81-0.899-0.1-2.199 0.9-1.098 1.61 1 0.5 2.098-0.3 3.098-0.8zm37.801-56.5c-1.899 0-1.899 2.89 0 2.89 1.898 0 1.898-2.89 0-2.89zm-0.801 3.89c-2.098 0-2.098 3.2 0 3.2 2 0 2-3.2 0-3.2zm-2.301 3.8c-2 0-2 3 0 3 1.902 0 1.902-3 0-3zm-3 2.6c-2.797 0-2.797 4.4 0 4.4 2.801 0 2.801-4.4 0-4.4zm-4.297 1.6c-1.902 0-1.902 2.9 0 2.9 1.899 0 1.899-2.9 0-2.9zm-1.902-5.8c-1.801 0-1.801 2.8 0 2.8s1.801-2.8 0-2.8zm-0.399 5.41c0-0.91-0.8-1.71-1.699-1.71-0.902 0-1.703 0.8-1.703 1.71 0 0.89 0.801 1.69 1.703 1.69 0.899-0.1 1.699-0.8 1.699-1.69zm-3.101-3c0-1.11-0.899-2-2-2-1 0-2 0.89-2 2 0 1.09 0.902 2 2 2 1 0 2-0.91 2-2zm-0.5-3.41c1 0 1.5-1.3 0.801-2l-0.102-0.09c-0.398-0.41-1.098-0.41-1.5 0l-0.098 0.09c-0.601 0.7 0 2 0.899 2zm3.301-2.4c-1.801 0-1.801 2.7 0 2.7 1.8 0 1.8-2.7 0-2.7zm-0.399-1.3c1.399 0 2.399-1.6 1.699-2.89 0 0 0-0.11-0.101-0.11-0.699-1.2-2.5-1.2-3.199 0 0 0 0 0.11-0.102 0.11-0.699 1.29 0.301 2.89 1.703 2.89zm2.098 1.8c0.101 1.2 1 2.2 2.199 2.2 1.102 0 2.203-1 2.203-2.2-0.101-1.19-1-2.19-2.203-2.19-1.199 0-2.297 1-2.199 2.19zm0.301-6.6c0.101 1.3 1 2.3 2.3 2.3 1.2 0 2.399-1.1 2.301-2.3-0.101-1.3-1-2.3-2.301-2.3-1.199 0-2.402 1.1-2.3 2.3zm2.898 9.1c-1.199 0-2.297 1-2.199 2.2 0.101 1.2 1 2.2 2.199 2.2 1.203 0 2.301-1 2.203-2.2 0-1.2-1-2.2-2.203-2.2zm1.301-5.19c0 0.89 0.801 1.69 1.699 1.69 0.902 0 1.703-0.8 1.703-1.69 0-0.91-0.801-1.71-1.703-1.71-1-0.1-1.699 0.71-1.699 1.71zm2.402 3.29c-1.801 0-1.801 2.8 0 2.8 1.797 0 1.797-2.8 0-2.8zm0.598-6.7c2 0 2-3.2 0-3.2-2.098 0-2.098 3.2 0 3.2zm2.101 2.8c1.399 0 1.399-2.2 0-2.2-1.402 0-1.402 2.2 0 2.2zm-3.101-67.3c0.402-0.2 0.699 0.41 0.301 0.6-1.899 1-3.399 2.7-4.5 4.5-0.7 1.31-1.102 2.6-1.602 3.9 1.102 2 2.402 3.91 3.5 6.1 0.203 0.31 0.102 0.6 0 0.81 0.203 0.19 0.402 0.39 0.602 0.59 0.3 0.3 0.699 0.6 1.101 0.91h0.098c4.101 0.89 6.902-1.41 10.199-3.31 0.402-0.19 0.801 0.31 0.5 0.6-2.199 1.71-4.398 3.6-6.898 4.3 0.3 0.1 0.601 0.2 0.898 0.3 0.203-0.2 0.402-0.39 0.801-0.39 13.401 0.19 16.801-16.21 28.801-19.41v-0.4c-0.1-0.6-0.1-1.19 0.1-1.8-0.9-0.3-1.9-1.1-2.5-2.1-0.4 0-0.9-0.1-1.3-0.2-5.1 6-11.8 11.5-19.699 13.2-0.301 0.1-0.402-0.4-0.101-0.5 7.9-2.4 13.4-7.4 18.5-13.6-0.2-0.19-0.3-0.4-0.4-0.6-2.8 1.8-5.8 3.1-9 4.2-0.4 0.1-0.6-0.5-0.3-0.6 2.4-1.1 4.7-2.5 6.9-4-5.5 0.5-11.2 0.31-16.501-0.9-3.5 0.71-6.5 1.5-9.699 3.3-2.5 1.41-6.2 3.3-7.899 6 0 2.1 0.5 3.91 1.297 5.7 1.203-3.2 4-6 6.801-7.2zm-8 0c1.601-2.09 4.199-3.9 6-5.2 2.301-1.7 5-3.1 7.801-3.7-2.399-0.8-4.602-1.8-6.801-3.19-3.801 2.79-6.5 7.29-7 12.09zm10.301-12.7c7.5 3.7 15.8 4 24 3.2h0.2c0-0.09-0.1-0.3-0.1-0.4 0-0.5 0.1-0.9 0.2-1.3l-0.2-0.2c-0.1 0.1-0.3 0.2-0.5 0.2-9.5-0.3-18.401-5.89-25.3-12-0.402-0.39 0.2-1 0.7-0.7 7.199 6.6 15.3 8.9 24.5 11.31-0.1-0.31-0.1-0.5-0.2-0.81-1.9-0.1-3.7-1-5.5-2-2.9-1.5-5.5-3.3-8.101-5.19-0.399-0.31 0-0.91 0.402-0.61 1.999 1.3 4.099 2.4 6.199 3.4 2.3 1.1 4.8 2.6 7.3 2.8 0-0.09 0.1-0.09 0.1-0.2-1.9-2.89-3.6-5.6-6.1-8-2.5-2.39-5.3-4.5-8.3-6.195-0.402-0.199 0-0.801 0.399-0.602 1.901 0.997 3.901 2.097 5.901 3.297-1.8-2.3-3.6-4.695-5.499-6.894-2.301-2.801-4.101-5.403-4.902-8.704-3.899-1.796-8.801-1.699-12.899-0.597-2.199 0.597-4 1.898-3.5 4.301 0.301 1.699 0.899 2.296 2.301 3.296 1.297 1 2.699 1.602 3.699 2.801 0.399 0.5 0.2 1.5-0.601 1.403-1.899-0.102-3.801-1.204-5.301-2.903-7.199 7.997 4.102 17.797 11.102 21.297zm26.7-0.5c2.1 0 2.1-3.2 0-3.2s-2.1 3.2 0 3.2zm0.2-3.8c1.3 0 1.3-2 0-2-1.2 0.1-1.2 2 0 2zm2.8-1.7c2 0 2-3 0-3-2-0.1-2 3 0 3zm-2.3 8.9c1.7 0 1.7-2.6 0-2.6s-1.7 2.6 0 2.6zm0.9 3.4s0.1 0 0.1 0.1c0.9 0.4 1.9-0.6 1.9-1.4 0-0.89-1-1.8-1.9-1.39 0 0-0.1 0-0.1 0.09-1.4 0.41-1.4 2 0 2.6zm2.2-10c-1.7 0-1.7 2.7 0 2.7s1.8-2.7 0-2.7zm1.2-1.69c0 0.89 0.8 1.69 1.7 1.69s1.7-0.8 1.7-1.69c0-0.91-0.8-1.71-1.7-1.71-1 0-1.7 0.8-1.7 1.71zm1.7-3c1.6 0 1.6-2.5 0-2.5s-1.6 2.5 0 2.5zm2.1 9.59c-1.2 0-1.2 1.91 0 1.91s1.2-1.91 0-1.91zm1.6-1c1.9 0 1.9-2.9 0-2.9s-1.9 2.9 0 2.9zm-0.2-3.59c1.3 0 1.3-2 0-2-1.2 0-1.2 2 0 2zm-0.9-5.91c0 1 0.8 1.8 1.8 1.8 0.9 0 1.8-0.8 1.8-1.8s-0.8-1.8-1.8-1.8c-1 0.1-1.8 0.9-1.8 1.8zm3.9 4.8c1.7 0 1.7-2.6 0-2.6-1.6 0-1.7 2.6 0 2.6zm0.8 1.2c-1.5 0-1.5 2.41 0 2.41s1.5-2.41 0-2.41zm-0.3 3.1c-2 0-2 3.1 0 3.1s2-3.1 0-3.1zm-2.3 3.4c-1.9 0-1.9 2.91 0 2.91 1.8-0.11 1.8-2.91 0-2.91zm-4.3-3c1.7 0 1.7-2.59 0-2.59s-1.7 2.59 0 2.59zm-1.3 0.6c-2.2 0-2.2 3.31 0 3.31s2.2-3.31 0-3.31zm2.8 6.4c0-1-0.8-1.9-1.9-1.9-1 0-2 0.9-1.9 1.9 0 1 0.8 1.91 1.9 1.91 1 0 1.9-0.91 1.9-1.91zm-4 5.6c-9.2 3.6-13.5 16.5-22.402 19.9 10.602-0.59 20.702-9.2 22.402-19.9zm-49.699-4c-0.703-4-1.601-7.9-3.203-11.8 0.301 1.61 0.5 3.3 0.402 4.9 1.098 2.3 2.098 4.5 2.801 6.9zm-0.703 7c-0.098-0.1-0.199-0.1-0.297-0.19-2.402 1.09-5 1-7.601 0.39-0.301 0.11-0.7 0.2-1 0.3-0.7 0.31-1.5 0.6-2.2 1-0.5 0.2-0.902-0.5-0.402-0.69 0.703-0.41 1.301-0.71 2-1-1.297-0.41-2.598-0.81-3.797-1.31-1 1-3.203 0.9-4.402 0.7-0.5-0.1-0.598-0.89 0-0.89 0.801 0 1.699-0.11 2.5-0.31 0.199 0 0.301-0.1 0.5-0.1-2.301-0.9-4.598-1.9-6.899-3-0.5 0.3-1.101 0.41-1.601 0.5-0.899 0.2-1.699 0.5-2.598 0.7-0.5 0.1-0.601-0.5-0.203-0.7 0.801-0.3 1.602-0.7 2.5-1 0.203-0.09 0.301-0.09 0.5-0.2-3.398-1.5-6.898-3-10.5-3.5 3.5 5 8.301 8.61 14.301 10.4 6.5 2.21 12.801 0.5 19.199-1.1zm-29.297-9.8c2.399 0.8 4.699 1.9 7.098 3-0.301-0.3-0.5-0.6-0.801-0.89-0.699-0.61-1.398-1.21-2.098-1.81-1.402-0.1-2.8-0.19-4.199-0.3zm6.297 0.9c0.203 0.1 0.402 0.3 0.5 0.4 1 0.9 2.203 1.9 2.902 3.1 1.2 0.6 2.5 1.3 3.899 1.9-1.098-1.6-2.301-3.19-3.699-4.6-1.2-0.3-2.399-0.59-3.602-0.8zm5.402 1.4c1.5 1.5 2.899 3.1 4 4.9 1.7 0.7 3.399 1.41 5.2 1.8-1.102-1.3-1.899-2.89-2.801-4.39-2.098-0.81-4.199-1.61-6.399-2.31zm7.801 3c1 1.2 1.899 2.31 2.598 3.6 0.199 0.1 0.301 0.3 0.199 0.4 2 0.4 4 0.4 5.902-0.1-2.902-1.2-5.8-2.59-8.699-3.9zm8-3.8c-1-2.5-2.203-5-3.5-7.39-0.402-0.31-0.703-0.61-1-0.91-0.801-0.7-1.5-1.4-2.203-2-0.297-0.3 0.203-0.8 0.5-0.5 0.402 0.3 0.801 0.6 1.301 0.91 0-0.11-0.098-0.21-0.098-0.41-0.301-0.59-0.703-1.2-1.101-1.7h-0.102c-0.797-0.39-1.5-1.2-2.098-1.8-0.699-0.7-1.402-1.4-2.101-2.09-0.399-0.41 0.199-1 0.601-0.61 0.7 0.5 1.301 1.11 1.899 1.7-2.301-3.8-4.598-7.59-6.098-11.696 0.297 10.896 8.098 17.896 14 26.496zm-13.703-28.297c1.902 4.597 4.902 9.097 7.801 13.597-0.199-1.8-0.301-3.6-0.5-5.4-0.699-0.9-1.399-1.79-2.199-2.7 0.5 1.2 0.8 2.41 0.8 3.5 0 0.5-0.699 0.7-0.902 0.2-0.5-1-0.598-2.1-0.898-3.1-0.301-1-0.602-1.995-1-2.898-1-1.097-2-2.097-3.102-3.199zm8.703 10.097c0.399 2.1 0.797 4.31 1 6.4 0.797 1.2 1.598 2.5 2.297 3.7-0.199-2-0.297-4-0.699-6-0.899-1.4-1.699-2.79-2.598-4.1zm100.3-16.398c-0.8-4.597-0.8-9.398-1.7-14 0 2.204-0.2 4.403-0.6 6.5 0 0.204-0.2 0.301-0.3 0.403 0.9 2.398 1.8 4.699 2.6 7.097zm-2.4-2.296c-0.4-1.204-0.9-2.403-1.4-3.602-0.8-0.102-1.6-0.898-2-1.5-0.3-0.5 0.5-1 0.9-0.5 0.1 0.199 0.3 0.398 0.5 0.602-0.6-1.5-1.3-3-2.1-4.5-1.7-0.602-2.9-2.5-3.7-4-0.2-0.403 0.4-0.801 0.7-0.403 0.5 0.801 1.1 1.5 1.7 2.102l0.1 0.097v-0.296c-0.5-0.903-1-1.903-1.6-2.801-2.2-3.801-4-7.903-5-12.102 1.1 10 6 18.801 11.9 26.903zm-11.6-30c0.7 2.199 1.5 4.398 2.4 6.5-0.1-1-0.2-1.903-0.4-2.903 0-0.199 0.1-0.398 0.2-0.398-0.8-1-1.6-2-2.2-3.199zm2.9 3.898c0.4 1.699 0.8 3.5 0.7 5.199 0.8 1.699 1.6 3.403 2.5 5.102-0.1-2.403 0-4.801-0.1-7.199-1.1-1-2.1-2-3.1-3.102zm4.1 4.301c0.3 2.898 0.6 6 0.4 8.898 1.1 2.199 2.2 4.301 3.2 6.5 0.4-3.301 0.5-6.5 0.3-9.801-0.9-2.097-2.3-3.898-3.9-5.597zm-7.6-9.199c0-0.102-0.1-0.204-0.1-0.301v0.199l0.1 0.102zm23.7-8.602c0.7-2.102 1.2-4.301 1.6-6.398-0.6 1.5-1.3 2.898-2.2 4.097 0.2 0.801 0.4 1.602 0.6 2.301zm0.4-7.102c0.7-1.398 1.3-2.898 1.8-4.398 0.2-3.5-0.1-7-1.1-10.5-0.1 4.801-0.7 10.199-2.9 14.5 0.2 1 0.4 2.102 0.7 3.102 0.5-0.903 1-1.801 1.5-2.704zm-2.1 8.801c-0.7-1.699-1.2-3.5-1.6-5.398-0.1 0-0.2-0.102-0.2-0.199-2.3-2.403-3.5-5.704-4.9-8.704-0.1-0.296 0.2-0.5 0.4-0.199 1.2 2 2.8 3.903 4.2 5.801-0.3-2-0.5-4.102-0.8-6.102-0.1-0.699-0.2-1.296-0.2-2-1.5-1.699-2.8-3.699-4-5.597-0.3-0.5 0.5-0.903 0.8-0.5 0.9 1.398 2 2.597 3 3.898-0.9-6.699-1.9-13.301-3.5-19.898-0.1-0.5002 0.6-0.6994 0.8-0.199 0.7 2.296 1.3 4.597 1.8 6.898 0.3-1.5 0.6-3.102 0.8-4.602-0.6-0.796-1.1-1.597-1.7-2.296-1.2-1.6019-2.2-3.1019-3-4.8012 0.4 7.1992-1.4 14.199-1.8 21.5-0.3 4.898 0 10.097 2.4 14.5 1.7 3.5 5 5.199 7.5 7.898zm-3.1-35.898c-0.2 2-0.4 4-0.8 6.097 0.6 2.704 1.1 5.5 1.6 8.301 0.7-3.398 1.2-6.801 1.8-10.301-0.8-1.398-1.7-2.699-2.6-4.097zm1.7 16.898c-0.1 0.199-0.2 0.301-0.4 0.403 0.4 2 0.7 4 1.1 6 1.1-4.204 2.3-8.301 2.6-12.801 0-0.199 0.2-0.403 0.3-0.403-0.5-1.398-1-2.699-1.6-3.898-0.2 3.602-1 7.301-2 10.699zm7.9 46c0 0.102 0.1 0.102 0 0 2.8-1.199 5.1-2.699 7.1-4.597-1.3 0.699-2.9 1.199-4.2 1-0.9 1-1.8 2-2.7 3-0.1 0.199-0.1 0.398-0.2 0.597zm1-3.301c0.5-0.699 1-1.296 1.5-2 0-1 0.5-2.097 0.8-3 0.3-1.097 0.6-2.296 1.2-3.296 0.2-0.301 0.8-0.204 0.7 0.199-0.1 1.301-0.6 2.5-0.9 3.699 0 0.102 0 0.102-0.1 0.199 0.8-1 1.5-2.097 2.3-3.097v-0.102c0-1.301 0.9-2.699 1.4-3.898 0.1-0.403 0.7-0.204 0.6 0.199-0.2 0.597-0.3 1.199-0.5 1.801 0.1-0.102 0.2-0.204 0.3-0.204 2.3-3.199 4.6-6.296 7.1-9.296 0.1-0.102 0.2-0.102 0.3-0.102v-0.398c-2.8 3-6.2 5.097-9.1 8-3.2 2.898-4.4 7.097-5.6 11.296zm14.5-18.199c-0.9 1.801-1.9 3.602-3 5.301 0.7-0.5 1.5-1 2.2-1.398 0.4-1.301 0.6-2.602 0.8-3.903zm-1.1 5.199c-1.1 0.903-2.3 1.801-3.5 2.602-1.1 1.602-2.3 3.199-3.5 4.699 2.1-1.199 3.9-2.898 5.8-4.199 0.5-1 0.9-2.102 1.2-3.102zm-1.9 4.602c-1.2 1-2.4 1.898-3.6 2.898-0.9 0.704-1.8 1.403-2.9 1.5-0.7 0.903-1.4 1.704-2.1 2.5 0.5-0.097 1-0.097 1.5-0.199 1-0.199 2-0.597 2.9-1.097 0.1-0.102 0.2-0.102 0.3 0 1.6-1.704 2.9-3.5 3.9-5.602zm25.4 35.896c-0.1-1.896-0.1-3.794-0.1-5.697-0.4 1.903-0.5 3.801 0.1 5.697zm10-21.095c-0.2-1.199-1.7-1.903-2.1-0.5-0.2 0.699 0 1.699 0.6 2.199 0.4 0.398 1 0.398 1.5 0.5 0-0.801 0.1-1.5 0-2.199zm6.7-6.5c0.4-1.301 0.8-2.602 1.6-3.602-0.1 0-0.1-0.097-0.1-0.097-0.5-0.903 0.5-3-1-3.301s-2.3 1-2.4 2.301c0.1 0.097 0.2 0.199 0.3 0.296 0.9 1.102 1.4 2.801 1.6 4.403zm-1.5 0.398c-0.2-0.898-0.3-1.801-0.6-2.597-0.2-0.602-0.5-1.204-0.9-1.602-0.2-0.199-0.4-0.398-0.6-0.602-0.3-0.199-1.2-0.296-1.5 0-1 1 0.7 2.903 1.3 3.5 0.7 0.5 1.5 0.903 2.3 1.301zm2.7-0.898c0.7-0.301 1.3-0.602 2-0.903 0.6-0.296 1.1-0.699 1.5-1.199 0.3-0.398 1-1.398 0.7-1.898-0.6-0.903-2.7 1.398-3.1 1.898-0.4 0.602-0.8 1.403-1.1 2.102zm11.6 9.699c1.1-0.898 2.3-1.602 3.4-2.398 0.5-0.403 1-0.801 1.4-1.301 0.6-0.699 1.1-2.403-0.4-2.199-1.3 0.097-2.8 1.796-3.4 2.796-0.7 0.903-1 2-1 3.102zm-12.6 21.696l1.2 0.3c-0.1-0.2-0.3-0.39-0.3-0.6-0.4 0.1-0.7 0.21-0.9 0.3zm0.2-1.2c1.2-0.3 2.4-0.39 3.7-0.5 0.3-0.3 0.7-0.5 1.1-0.8s0.8-0.59 1.2-0.9c0.3-0.19 0.7 0.31 0.4 0.5-0.3 0.4-0.7 0.7-1.1 0.9 0 0-0.1 0-0.1 0.1 0.5 0 1.1-0.1 1.6-0.1s0.9-0.09 1.4-0.09c0.2-0.41 0.5-0.81 0.8-1.21 0.4-0.5 0.9-0.896 1.4-1.294 0.5-0.301 1 0.398 0.6 0.794-0.4 0.4-0.8 0.8-1.2 1.21-0.1 0.09-0.2 0.19-0.3 0.39 3-0.3 5.9-0.8 8.7-1.695-2 0.095-3.9-0.403-6.1-0.699-4.4-0.602-8.9 0.296-12.1 3.394zm19.1-2.2c-1.7 0.6-3.5 1.1-5.3 1.4 0.6 0.2 1.2 0.3 1.8 0.3 1.2-0.5 2.3-1.1 3.5-1.7zm1-0.694v0.097c0.1-0.097 0.3-0.199 0.4-0.301-0.1 0.102-0.3 0.102-0.4 0.204zm-6.2 3.094c-0.5-0.09-1-0.2-1.4-0.5-0.1-0.09-0.1-0.09-0.2-0.2-0.4 0.11-0.8 0.11-1.2 0.2-0.3 0-0.7 0.1-1 0.1 0.2 0.1 0.5 0.2 0.7 0.4 0.5 0.2 1.1 0.3 1.5 0.6 0.6-0.19 1.1-0.4 1.6-0.6zm-2.7 0.91c-0.2-0.11-0.3-0.11-0.5-0.21-0.6-0.2-1.2-0.5-1.7-0.79-0.1-0.11-0.2-0.11-0.2-0.21-0.1 0.1-0.2 0.1-0.4 0-1 0.1-2 0.1-3.1 0.21 0.4 0.5 0.8 0.89 1.3 1.29 0.2 0.21 0.4 0.3 0.7 0.4 1.3-0.1 2.6-0.3 3.9-0.69zm-5.8 0.79c-0.5-0.5-0.9-1-1.1-1.5 0-0.1 0-0.1-0.1-0.2-1 0.1-1.9 0.2-2.8 0.41 0.3 0.29 0.6 0.69 0.9 1l0.1 0.09c1 0.2 2 0.2 3 0.2zm53.1 191.21c0.1-1.61 2.7-3 2.2-4.5-0.7-1.81-2.3 0.59-2.4 1.5-0.2 1 0.1 2 0.2 3zm16.3 14.19c-0.2 0.81-0.8 1.4-1.5 1.7-0.2 0.11-0.4 0.2-0.7 0.2 0.4 0.8 0.5 1.8-0.1 2.5-0.8 1-2.2 1-3.3 0.41-0.9-0.61-2.2-2.2-1.7-3.41 0.1-0.29 0.4-0.4 0.7-0.29 0.6 0.29 0.8 1.09 1.2 1.59 0.3 0.41 1.6 1.5 1.9 0.61 0.2-0.61-0.8-1.61-1.2-2-0.6-0.5-1.4-0.7-2.2-1-4.7 0.3-9.3-0.2-14 0 0.9 0.3 1.8 0.59 2.7 1 2.1 1 4.7 2.39 6.5 3.89l0.1 0.11c1.1 0 2.3 0.39 3.1 1.09 0.9 0.8 1.5 2.41 0.5 3.41-1.7 1.69-5.1-1-4.7-3.2-2-0.3-3.5-1.71-5.1-2.91-2.4-1.8-4.8-2.7-7.7-3-5.6 0.8-10.6 2.61-15.5 5.8-0.2 0.11-0.4 0.11-0.5 0-1.8 1.31-3.7 2.5-5.4 3.61-3.4 2.2-6.9 4.09-10.5 5.79-2.2 1-4.9 1.91-7.3 3.1 1.7-0.5 3.5-0.89 5.3-1.39 6.1-1.61 11.9-4.21 18.2-5.3 3.1-0.5 6.3-0.81 9.5-0.81 0.1-0.1 0.3-0.1 0.4-0.1s0.2 0 0.3 0.1c8.1 0.11 16.3 1.81 23.2 5.61 0.3 0.2 0.1 0.7-0.2 0.59-5.3-1.89-10.5-3.39-15.8-4.2 2.1 0.7 4.1 1.61 6.1 2.61 2.6 1.29 5.7 2.59 7.1 5.2 0.6-0.81 1.1-1.61 1.6-2.41 0.3-0.5 1.2 0 0.8 0.5-1.2 1.91-2.4 3.8-4 5.5 0 0.1-0.1 0.21-0.2 0.21-1.1 1.2-2.4 2.29-3.9 3-1.6 0.79-3.3 0.79-5 1.59-1.9 0.91-3.2 2.5-5.1 3.41-0.4 0.2-0.8 0.39-1.3 0.59 0 0.11-0.2 0.2-0.3 0.11-7.8 3-17.5-0.11-25.3-2.7 0.4 1.39 0.6 2.89 1 4.29 1.3 5.1 4.9 8.21 7.4 12.71 0.7 1.29-1.2 2.39-2 1.2-3.7-5.11-6.5-8.7-7.6-14.91-0.2-1.5-0.6-2.79-1.1-4-0.5-0.2-0.6-0.59-0.5-1-1.3-2.5-3.5-4.2-7.1-4.9-2.4-0.39-4.8-0.39-7.2-0.3-0.1 0-0.1 0.11-0.2 0.11h-0.1c-0.2 0-0.3 0-0.5-0.11h-2.5-0.1c-0.3 1-0.7 1.91-1.3 2.91-0.5 0.79-1.9 0.29-1.6-0.71 0.8-2 1.1-4 1.3-6-0.8 0.1-1.7 0.1-2.5 0.1-2 0-3.9-0.39-5.7-1-0.5-0.1-0.3-0.89 0.2-0.8 1.8 0.41 3.7 0.61 5.5 0.5 0.8 0 1.7-0.3 2.6-0.39 0.1-4.7-0.8-9.41-0.3-14.2 0.3-3.8 1.5-9.41-1-12.71-3.3-4.4-8.4-4.09-13.2-3.59-0.2 0-0.3-0.11-0.4-0.2-0.1 0.2-0.3 0.2-0.5 0.2-0.7 8.8-3.7 17.39-8.8 24.59-3.2 4.41-7.1 9.3-11.5 13.71 3.4-2.3 6.8-4.71 9.8-7.41 6.5-5.7 9.8-13.09 13.5-20.7 0.1-0.19 0.5-0.1 0.4 0.2-3 7.3-6.7 15.11-12.2 20.8-6 6.2-13.9 11.11-21.1 16 7.2-0.3 12.5-6.1 18-10.39 4.8-3.8 9.3-7.3 13-12.21 0.2-0.29 0.6 0 0.4 0.3-4.4 6.61-10.8 11.61-16.7 16.7-1.2 1.1-2.4 2.1-3.6 3.1 1.5-0.8 2.9-1.69 4.3-2.89 0.5-0.41 1.2 0.29 0.7 0.7-4.4 4.09-9.6 6.69-15.5 7.59-2.9 0.41-5.8 0.1-8.7 0.21h-0.3c-0.3 0.2-0.7 0.2-1.1 0.09-3.5 0.41-7 1.41-10.6 1-0.5-0.09-0.7-0.89-0.1-1 3.4-0.5 6.7-0.7 9.9-1-0.1-0.39 0-0.8 0.3-1.2 7.6-8.6 12.7-16.6 17.4-27.1 3.9-8.79 17.2-21.4 9.5-31.29-0.4-0.5 0.3-1.11 0.7-0.71 7.5 8.71-1.1 18.1-5.4 26-3.6 6.5-4.9 13.91-8.9 20.3-2.3 3.7-5.1 7.2-7.9 10.5 19.9-12.59 35.6-33.59 33-58.09-0.1-0.61 0.9-0.71 1-0.11 0.2 1.5 0.4 3.11 0.5 4.61 0.1-0.41 0.2-0.8 0.3-1.21 0.8-4.7 0.6-9.29 0.7-14 0-0.09 0.2-0.2 0.2 0 0.8 3.6 0.9 7.41 0.7 11.1-0.2 3.5-1.2 7.11-1.2 10.61 0 0 0.1 0 0.1-0.11 0.7-0.1 1.4-0.19 2-0.3 1.1-4.5 1.8-9 2.2-13.59 0-0.5 0.7-0.5 0.7 0 0 4.5-0.5 9-1.4 13.39 1.2-0.1 2.3-0.1 3.4 0 0.7-1.8 1.5-3.69 1.5-5.69 0-0.41 0.6-0.41 0.7 0 0.1 2.09 0.1 4-0.7 5.89 4.1 0.8 7.2 3.41 8 9 0.8 5.7-0.4 11.61 0.2 17.41 0.3 3.39 0.7 6.7-0.1 9.79 0.5 0 1.1 0 1.6-0.09 0-0.2 0.1-0.31 0.2-0.5 10.8-14.5 8.6-32.5-0.8-47.11-4.1-6.39-5-13.2-8.2-20-1.6-3.39-4-6.2-7.2-7.39-0.1 0-0.3-0.11-0.4-0.11-1-0.3-2.1-0.5-3.3-0.5-5.5 0-9.2 3.3-12.8 7 0.9 0.41 1.9 0.91 2.7 1.41 5.5 3.2 9 11.79 9.9 17.79 0.1 0.5-0.6 0.91-0.9 0.41-2.7-5.31-4.5-13.2-10-16.31-6-3.39-14.6-4.39-21.3-3.89-12 0.79-28 8.59-28.6 22.2 0.2 0.5 0.5 1 0.8 1.5 0.2-0.11 0.3-0.2 0.5-0.31 7.1-3.3 16.9-3.5 24 0.4 3.5-4.79 2.1-10.5 1.2-16-0.1-0.5 0.6-0.7 0.7-0.2 1.8 5.61 2.9 12-0.5 17 0.5 0.3 0.9 0.61 1.4 1 2.9-3.3 5.6-7.09 5.4-11.7 0-0.39 0.6-0.39 0.6 0 0.5 5-2 8.9-5.1 12.5l0.1 0.11c0.8 0.79-0.4 1.89-1.2 1.2-3.2-2.81-7.3-4.31-11.5-4.81 4.1 2.4 8.3 5.7 11.2 9.2 3.1 3.8 4.1 9.8 4.9 14.5 0.2 1-1.2 1.5-1.6 0.41-1.1-3.3-1.5-6.91-2.6-10.21-0.1 2.21-0.8 4.3-1.7 6.3 0 0.11 0 0.2 0.1 0.3 0 0.31-0.2 0.61-0.5 0.61-0.9 1.7-1.9 3.39-3 5.09-1 1.61-2.1 3.2-3.4 4.7 1.1-0.59 2.2-1.29 3.2-2 4-2.7 8.5-3.7 12.7-5.59-0.2-2.5-0.3-5.11-0.4-7.61-0.2-3.39-1-5.5-3.3-8-0.4-0.39 0.2-1.09 0.7-0.7 2 1.81 3.4 3.61 4 6.31 0.6 2.89 0.7 6.19 0.7 9.19 0.3-0.19 0.7-0.3 1-0.5 0.3-0.19 0.8 0.31 0.5 0.61 0.8-0.71 2 0.5 1.2 1.29-6.9 7.5-14.4 16.21-24.8 18.41-10 2.09-17.7-1-25.2-7.61-0.8-0.3-1.6-0.7-2.2-1.2-0.3-0.19-0.3-0.6-0.2-0.89-0.3 0.2-0.6 0.2-0.9 0-1-0.5-1.8-1.3-2.5-2.21-7-5.59-16.9-12.7-17.1-22.59 0-0.91 1.3-0.81 1.3 0 0.7 8.5 7.4 13.5 13.7 18.39-0.4-1.59-0.4-3.2 0-5 0.1-0.39 0.8-0.3 0.8 0.11 0.1 4.09 2.1 7.09 4.9 9.8 0.4 0.39 0.3 1 0 1.29h0.3c1.5 0.5 2.9 1.3 4.4 1.71 1.7 0.39 3.5 0.59 5.2 0.5 0.5 0 0.6 0.79 0.1 0.79-1.7 0.21-3.6 0.3-5.5 0 3.3 2.5 7 4.8 11 5.91 4.9 1.39 11.2 0.19 15.9-1.81 8-3.3 13.3-10.8 19.2-16.8-0.5 0.41-1 0.7-1.4 1-0.1 0.41-0.5 0.61-0.9 0.5-1.8 1-3.6 1.61-5.7 2.41-4.1 1.5-7.2 4.09-11 6.09-5.5 2.8-12.4 5.5-18.4 3.11-0.5-0.2-0.6-0.81-0.4-1.2-3.8-5-5.2-12.61-4.2-19.71-0.2-0.2-0.2-0.5 0-0.79l0.1-0.11c0.7-4.39 2.5-8.6 5.1-11.69-4.7 2.19-8 6.59-9.6 11.59 0 0.21-0.1 0.41-0.2 0.5-0.5 1.8-0.8 3.6-0.9 5.41 0 0.3 0.1 0.69 0.1 1 0 0.09 0 0.19-0.1 0.19 0 1.31 0.2 2.61 0.5 3.81 2.1 2 4.2 3.8 6.6 5.5 0.6 0.39 0.1 1.19-0.5 0.89-5.1-3-9.9-7.09-13.7-11.5-0.7-0.8 0.3-1.8 1.1-1.09 1.8 1.59 3.5 3.29 5.2 5-0.5-1.91-0.7-3.8-0.5-5.8-0.1-0.41-0.1-0.7-0.2-1.11 0-0.09-0.1-0.3-0.1-0.39-0.3-0.11-0.6-0.31-0.7-0.61-0.8-1.8-1.4-3.8-2-5.7-0.6-1.1-1.3-2.1-1.9-3.1-3.3-4.9-11.7-12.59-16.2-4-0.3 0.6-1.3 0.21-1.1-0.5 1.9-5.4 8-5.7 12.3-3-1.2-1.9-2-3.9-2.2-6.29 0-0.41 0.7-0.5 0.8-0.11 0.7 3.9 3.8 7 6.6 9.9-1.4-7.7-1.4-15.79 0.4-23.2 0.1-0.5 0.9-0.39 0.8 0.11-1.4 12.3-0.3 23.09 4.2 34.59 0-0.2 0.1-0.29 0.1-0.5-0.6-4.7-0.6-9.59-0.9-14.29 0-0.41 0.6-0.41 0.7 0 0.4 3.59 1 7.29 1.5 10.89 1.7-3.5 4.3-6.69 7.5-8.69-3.1-4.11-1.5-9.5 0-13.91 0.2-0.5 0.8-0.29 0.7 0.21-0.8 3.2-1.3 6.09-0.7 9 0.7-6.41 4.9-11.71 10.4-15.5-5.8-3.71-11.7-8-18.5-9.5-7.4-1.71-14 1.39-20.2 5.2-2.6 1.59-5.3 3.19-7.8 5-2 1.39-4.5 3.09-5.7 5.39-0.9 1.7-0.8 4.61-0.9 6.5-0.7 8.8 4.4 13.8 10.8 19 0.8 0.61-0.3 1.7-1.1 1.11-6.1-4.91-10.8-9-11.4-16.41-0.2-0.09-0.3-0.09-0.4-0.2-4.3 5-8.2 10.41-10.1 16.8-2.399 7.9 2.8 14.2 8.8 18.7 4.3 3.2 9.5 5.2 13.3 9.11 3.1 3.19 5 7.3 6.7 11.39 0.4 1-1.3 1.7-1.8 0.7-0.2-0.29-0.3-0.7-0.5-1-0.1 0.1-0.2 0.1-0.4 0-0.3-0.2-0.6-0.29-0.9-0.5h-0.2c-0.2 0.21-0.6 0.3-1 0.1-1.2-0.69-2.2-1.5-3.2-2.39-5.3-2.8-11.4-5.8-17.3-6.8-0.2 0.09-0.5 0.19-0.7 0-0.2-0.11-0.3-0.11-0.5-0.2-3.902-0.5-7.699-0.21-11.199 1.5-1 0.5-1.902-1-0.902-1.5 2.5-1.21 5.101-1.8 7.801-1.8-2.399-0.91-4.7-1.7-7-2.91-3.7-1.79-6.399-4.79-9-7.79-0.2-0.3 0.101-0.71 0.398-0.41 3.602 3.7 7.203 6.8 12.203 8.41 2.899 0.89 5.799 1.39 8.299 3.09 5.2 0.91 10.3 3.11 15.1 5.61-0.4-0.5-0.9-0.91-1.4-1.41-3.7-3.5-7.6-4-12.1-5.59-5.602-2-9.899-5.91-13.301-10.7-0.199-0.3 0.301-0.5 0.5-0.3 5.301 7.19 12.001 8.69 19.901 11.5 5.2 1.89 8.2 6.39 12.5 9.59-1.9-9.9-14.8-10.79-21.8-16-6-4.5-10.3-11.2-13.601-17.79-0.199-0.5 0.402-0.8 0.699-0.41 3.301 4.41 6.203 9.2 10.102 13.11 3.5 3.59 7.5 5.69 11.9 7.69-0.3-0.19-0.6-0.39-0.9-0.6-4.6-2.9-9.3-6.59-11.801-11.59-1.598-3.31-1.699-6.91-0.899-10.5-4-2.5-7.3-6-9.8-10-0.2-0.31 0.199-0.5 0.398-0.31 2.703 3.61 6 6.5 9.703 8.9 0.199-0.59 0.399-1.09 0.598-1.7-2.399-1.2-4-4.3-5.098-6.39-0.203-0.41 0.399-0.81 0.699-0.41 0.801 1.21 1.5 2.41 2.5 3.5 0.801 0.91 1.598 1.41 2.5 2 0.7-1.5 1.5-3 2.3-4.5-5.901-5.59-10.401-12.2-14.1-19.4-0.2-0.3 0.3-0.6 0.5-0.3 3.898 6.8 9 12.7 14.5 18.2 1.9-2.79 4.1-5.4 6.2-7.5-9.2-4.2-14.4-13.7-19.001-22.29-0.199-0.41 0.402-0.8 0.699-0.41 5.301 8.61 10.802 16.5 19.902 21.2l0.1-0.09v-0.31c0-0.8 0.1-1.69 0.1-2.5-1.3-0.39-2.4-1.39-3.4-2.19-1.2-1-2.4-2.11-3.4-3.31-0.3-0.3 0.2-0.8 0.5-0.5 1 1.11 2.2 2 3.4 2.81 0.9 0.59 2 1 3 1.5 0.3-2.41 0.8-4.81 2.1-6.61-4.1-4.09-7.1-9.3-9.5-14.5-0.1-0.3 0.3-0.59 0.5-0.3 2.7 5.1 6.3 9.3 10.1 13.5 2-1.79 4.9-3 7-4.4 5.5-3.5 11.1-7.19 17.5-8.3 0-0.09 0-0.3 0.1-0.39 0.4-0.7 0.9-1.41 1.4-2.11-7-1.2-14.4-2.89-21.7-4-1.7 0.11-3.4 0-5.4-0.7-0.1 0-0.1-0.1-0.2-0.1-1.3-0.2-2.7-0.3-4-0.4-0.2 0.31-0.8 0.31-0.9-0.1-11.6-0.7-22.702 1.5-31.901 11.1 0 0 0 0.11 0.101 0.11 1.399 3.59 3.098 7 5.098 10.2 0.301 0.5-0.5 0.89-0.797 0.5-2.203-3.11-3.902-6.41-5.301-9.91-0.5 0.21-1.101-0.59-0.601-1.09 2.402-2.61 5.101-4.81 7.902-6.7-2.902 0.59-6 0.79-9.101 0.79-3.102 1.91-6.301 3.91-8.7 6.6-1.8 2-2.601 3.9-3.5 6.4-0.402 1.1-0.8 2-1.5 2.91 0.399 2.5-1.199 7.09-4.101 6.09-1.399-0.5-1.5-2.09-1-3.29 0.699-1.5 1.801-2.61 3.301-3.3v-0.11c0.8-2.5 1.898-4.7 3.3-6.7-1.8 0.9-3.601 1.7-5.5 2.4-2.5 1-5.199 2.41-7.902 2.6h-0.098c-1 1-2.3 1.7-3.5 2.5-1 0.7-1.902 1.7-3.199 1.81-1.203 0.09-3.5-0.5-4-1.7-1.601-3.71 6.5-4 9.598-3.8 0.199-0.11 0.301-0.2 0.5-0.31 0.199-0.1 0.301-0.1 0.5-0.1 4.902-1.29 10.402-2.9 15-5.29 0.101 0 0.101 0 0.199-0.11 2.301-2.69 5.203-4.89 8.402-6.69-5 0-10-0.2-14.5 0.5h-0.5c-1 0.8-2.601 1.39-3.699 1.39-1.301-0.09-2.601-0.89-2.703-2.2-0.098-1.39 1.203-2.5 2.5-2.69 1.402-0.11 2.801 0.59 3.703 1.59 0.098 0 0.199-0.09 0.297-0.09 0.203 0 0.301 0 0.402 0.09 9.899-2.79 20.399 0.1 30.5-1.9 3.098-1.39 6.5-2.39 9.899-2.89 0.101-0.11 0.101-0.21 0.199-0.21 1.5-1.09 3.502-1.5 5.302-2.2 2.3-0.89 4.5-1.89 6.4-3.5 0.2-0.09 0.3-0.09 0.5-0.09 0.5-1.71 1.2-3.21 2.1-4.41-4.3 2.91-7.9 5.8-13.302 6.8-1.5 0.31-4.098 1.31-4.797-0.6-0.301-0.59 0.598-1.2 1.098-0.9 2.5 1.5 9.301-2.3 11.301-3.5 2.4-1.5 4.5-3.19 7-4.5 3.1-1.69 6.8-3.3 9.2-5.89 2.9-3.21 3.7-6.61 3.8-10.41-0.4 1.2-1 2.41-1.9 3.5-0.5 0.61-1.4-0.2-1-0.8 2.4-3.59 2.4-7.9 0.4-11.59-0.1 0-0.2-0.11-0.3-0.11-0.4-0.09-0.4-0.5-0.2-0.8-2-3.09-5.2-4.79-8-7.09-4.4 2.89-9.8 4.39-15.2 4.5 3 1.39 5.8 3.39 7.4 6.39 0.1 0.2-0.2 0.41-0.3 0.2-2.6-4.09-7.1-5.29-11.299-6.79-0.601-0.11-1.101-0.21-1.703-0.3 0 0.59-0.098 1.09-0.398 1.59 2.3 1.3 4.101 3.21 5.699 5.41 2.401 3.09 5.001 6.09 7.201 9.39 0.2 0.3-0.3 0.61-0.5 0.3-1.9-2.8-4.2-5.5-6.502-8-1.898-2.1-3.797-4.3-6.297-5.6-0.203 0.71-0.601 1.3-1 1.8 1.598 2.91 2.797 6 4.297 8.91 0.203 0.29-0.297 0.59-0.5 0.29-1.398-2.5-3-4.79-4.398-7.29 1.101 9.09 1.101 16.5-6 23.2 1 1.69 0.601 3.89 2.199 5.39 2 1.91 5.601 0.3 7-1.8 0.199-0.4 0.902-0.09 0.699 0.3-1 2.3-4.398 4.3-6.898 3.7-2.399-0.5-4.5-3.59-4.7-6.2-7.101 5.8-14.8 15.5-24.902 9.2-0.699-0.4-0.199-1.5 0.602-1.29 6.699 1.5 11.3 1.09 16.601-3.71 2.797-2.5 5.699-4.7 8.5-7.09 7.098-6.31 6.5-14.11 5.899-22.41-0.399 0.1-0.801 0.21-1.2 0.21-0.3 0.39-0.8 0.79-1.3 1.09 0 3.7 0.101 7.8-1.399 11.11-0.101 0.3-0.601 0.09-0.5-0.2 1.098-3.11 0.699-6.8 0.598-10.3-0.301 0.09-0.598 0.19-0.899 0.19-0.902 0.11-1.902-0.1-2.699-0.6-0.101 0.1-0.203 0.1-0.301 0.21-0.601 8.89-7.601 16.09-12.601 22.89-0.199 0.31-0.699 0-0.5-0.3 4.902-6.89 10.301-13.7 11.601-22.2h-0.402c-0.297 0-0.5-0.1-0.699-0.1 0 0.1-0.098 0.2-0.098 0.2-0.5 1.21-1 2.3-1.703 3.3-0.297 0.3-0.797 0-0.699-0.4 0.402-1.19 0.902-2.3 1.402-3.5-0.301-0.19-0.601-0.39-0.902-0.69-0.801 0.89-1.5 1.8-2.199 2.69-1.301 1.7-2.5 3.5-3.602 5.31-0.199 0.3-0.598 0-0.398-0.31 1.601-2.89 3.398-6.19 5.601-8.8 0-0.1-0.101-0.2-0.101-0.3-0.801 0-1.5-0.2-2.102-0.7-2.098 1.11-4.098 2.2-6 3.8-2.297 2-4.398 4.31-6.098 6.81-0.199 0.39-0.8 0-0.601-0.31 2.699-4.5 6.699-9.19 11.5-11.6-0.199-0.4-0.399-0.9-0.399-1.4v-0.39c-0.902 0.39-1.8 0.79-2.699 1.09-0.101 0.2-0.203 0.3-0.5 0.41-3.601 1.7-7.402 3.39-10.203 6.2-3.5 3.39-3.598 7-4.199 11.39-0.399 2.5-1.598 4.3-2.5 6.7-1.598 4.3 0.601 7.91 3.101 11.41 0.2 0.29-0.3 0.69-0.5 0.39-2.101-2.2-4-4.7-4.5-7.8-0.699-4.5 2.301-9.09 2.899-13.4 0.801-6.1 3.5-9.8 7.601-12.69-4 0.79-7.902 0.89-11-0.31-8.8-3.3-7-15.8-6.5-23 0-0.69 1-0.69 1 0 0.098 8.4-2 21.4 10.5 21.1 5.598-0.2 10.801-2.5 16.2-3.5-0.5-0.7-0.801-1.6-0.602-2.5 0.102-0.2 0.102-0.5 0.203-0.7-2.203 0-4.601-0.4-6.703-0.59-0.398 0-0.398-0.71 0-0.71 1.703 0.1 3.5 0.21 5.203 0.1 0.797 0 1.598-0.1 2.297-0.1 0.301-0.4 0.703-0.7 1.203-0.9-0.101-0.3-0.101-0.6-0.101-0.89-5.301-1.41-10.102-4.91-13.399-9.31-0.301-0.39 0.297-0.8 0.598-0.5 4 3.9 8.301 6.31 13.301 8.11 0.5-0.71 1.199-1.41 2-1.8-2.5-1.2-4.5-3.41-6.5-5.5-3.5-3.61-7.301-6.91-11.399-9.81-0.301-0.19 0-0.69 0.297-0.5 3.301 2.31 6.5 4.61 9.5 7.31 2.801 2.59 5.301 5.09 8.602 7 0.3-0.61 0.699-1.11 1.199-1.5l0.101-0.11c-0.5-0.39-0.902-1-1.199-1.39-0.601-0.7-1.101-1.5-1.601-2.31-0.2-0.3 0.3-0.8 0.601-0.39 0.598 0.7 1.199 1.39 1.899 2.09 0.398 0.41 1.101 0.91 1.398 1.5 0.301-0.09 0.602-0.2 0.902-0.2 0.301 0 0.5 0 0.801 0.11 0-0.11 0-0.11 0.098-0.21 0.301-0.4 0.699-0.7 1.101-1-1.699-3.09-3.699-6.29-5.902-9.5-0.297 0.21-0.598 0.1-0.898-0.2-0.7-1-1.399-2.2-1.801-3.39-3.301-4.2-7.098-8-10.899-11-5.402-4.31-14-4.11-18.902 1.19-4.297 4.61-1.797 9-0.5 13.81 3 3.09 6.102 5.8 9.801 8 0.199 0.09 0 0.39-0.199 0.3-3.399-1.5-6.602-3.5-9.102-6.21 0.102 0.5 0.203 1.1 0.203 1.6 0 0.61-0.902 0.61-0.902 0-0.801-6.6-6-11-1.699-17.5 3.3-4.89 10.398-6.69 16-5.69 1.898 0.39 3.601 1.19 5.101 2.19-0.801-2.69 0.297-5.3 1-8.1 0.797-3.2 1.297-7.09 3.297-9.9 3.102-4.39 7.5-1.3 10 1.9 0.801-2.4 2.602-4.5 4.801-5.2h0.101c-2.199-1.2-3.699-3.09-5.199-5-1-1.39-2-2.7-2.902-4.09l-0.098 0.09c-14.101 5.91-30 2.11-37.703-11.5-0.098-0.2-0.098-0.39 0-0.59-0.098-0.5 0.203-1.11 0.801-1.11 2.902-0.3 5.699-0.19 8.301 0.2h0.398c9.102 1.3 17 5.61 25.602 10-6.899-10.8-21-23.7-16.102-37.297 0.102-0.398 0.801-0.398 0.801 0.102v0.301h0.101c11.399 8.094 20.2 24.304 19.399 38.504 0 0.39-0.301 0.69-0.699 0.89 0.898 1.41 1.898 2.7 3.199 3.7 0.801 0.6 1.601 1.21 2.5 1.71-3.399-7.71-0.899-17.11 6.601-22.21-1.101-0.7-2.199-1.5-3.3-2.4-6-5.1-11.102-13.69-4.899-20.296-1.601-2.199-2.101-5-0.402-7.102 3.601-4.296 12.301-3.597 17.301-1.398-0.102-0.398-0.102-0.801-0.102-1.199-0.5-8.199 5.502-15.301 13.502-16.602 0.5-0.097 0.7 0.699 0.2 0.801-10.999 2.699-14.6 13.699-8.499 22.898 4.499 6.801 10.499 12.508 14.899 19.298 0.3-0.29 0.6-0.5 1-0.59-0.1-1.11 0.5-2.11 1.4-2.81 0.2-0.19 0.5-0.3 0.8-0.39 0-1.61 0.1-3.21-0.1-4.91-0.3-2.297-1-4.496-1.9-6.695-0.1-0.403 0.5-0.602 0.6-0.301 1.4 3.398 2.8 7.606 2.9 11.406 0.3 0 0.6 0 0.9 0.09 0.3-0.39 0.6-0.7 1-1-0.1-0.09-0.1-0.2-0.1-0.39-0.1-7.305-1.1-14.208-3.7-21.004-0.1-0.301 0.5-0.602 0.6-0.301 2.8 6.699 4.7 13.699 4.6 20.995 0.9-0.19 1.9 0 2.6 0.5 0.8-0.5 1.8-0.6 2.8-0.5 0.4 0 0.7 0.11 1 0.2-0.1-0.2-0.1-0.5 0.1-0.7 0.1-0.1 0.2-0.19 0.4-0.3 3.8-7.996 13.3-21.996 1-26.195 0.8 3.898 0 8.398-0.8 12.301-0.1 0.296-0.6 0.199-0.5-0.102 0.8-4.398 0.2-8.199 0.1-12.5-0.3-0.199-0.1-0.801 0.4-0.699 12.8 2.097 8 15.301 3.4 24.105 3.9-3.304 8-5.906 13.4-5.906 6.6 0 13.1-3.699 16.9 4 0.2 0.398-0.4 0.801-0.6 0.398-2.8-5.398-10.9-3.199-16.3-3.199-6.3 0-10.7 3.903-15.1 7.997-0.3 0.5-0.6 1-0.8 1.41-0.1 0.19-0.3 0.3-0.4 0.3 0.1 0.09 0.1 0.2 0.2 0.29 0 0.1 0.1 0.21 0.1 0.3 0.7-0.7 1.5-1.2 2.2-1.8 1.3-1 2.7-1.79 4.2-2.4 0.4-0.19 0.7 0.31 0.3 0.5-1.4 0.81-2.7 1.61-3.9 2.61-0.9 0.7-1.6 1.7-2.5 2.39 0.8 0.4 1.5 1.11 1.7 1.9 1-0.5 2.2-0.7 3.2-1.2 1.6-0.7 3.2-1.7 4.6-2.8 0.4-0.29 0.9 0.21 0.6 0.6-1.4 1.31-2.8 2.5-4.5 3.31-1.1 0.59-2.5 1.3-3.8 1.39-0.1 0.3-0.2 0.7-0.3 1 0.9 0.91 1 2.61 0.4 3.8 4 0.4 8.1 0.11 12.1-0.6 3.7-0.59 6.5-2.59 10-3.9 0.4-0.1 0.5 0.4 0.2 0.61-2.2 0.89-3.9 2.39-6.1 3.29-2 0.8-4.1 1.21-6.2 1.6-3.3 0.61-6.6 1-9.9 0.81v0.59c-0.1 0.6-0.3 1.21-0.7 1.71 1.4 0.09 2.8 0.39 4.2 0.39 0.3 0 0.3 0.5 0 0.5-1.6 0.11-3.3 0.31-4.9 0v0.31c0 0.19-0.1 0.39-0.1 0.59 2 0.71 3.9 1.8 6 2 2.4 0.3 4.9 0 7.2-0.09 0.5 0 0.7 0.89 0.1 1-5.1 1-9.6 0.8-14.2-1.61-0.1 0.11-0.1 0.11-0.2 0.2 5.2 5 12.7 4.21 19.5 3 0.4-0.09 0.6 0.5 0.2 0.6-5.5 1.81-17.9 3.5-21.3-3h-0.6-0.2c1.6 1.11 3 2.81 4.3 4.11 1.7 1.7 3.4 3.29 5.2 5 0.3 0.29-0.1 0.7-0.4 0.39-1.8-1.6-3.7-3.1-5.5-4.6-1.6-1.29-3.5-2.59-4.8-4.2-0.4 0.2-0.9 0.41-1.3 0.5 0.8 4.41 2 10.3 5 13.41 0.3 0.29-0.1 0.7-0.4 0.39-3.3-3.19-5.1-8.5-6.1-13.1-0.3 0.3-0.7 0.41-1.1 0.5-0.2 1.1-0.3 1.91-0.1 3 0.2 1.1 0.5 2.21 0.7 3.3 0.1 0.3-0.4 0.5-0.5 0.11-0.2-0.5-0.5-1.2-0.8-2-0.8 6.5-4.9 12-10.4 15.69 0.1 0.31 0.2 0.5 0.2 0.81 0.1 0.5 0.3 0.89 0.3 1.39 0 0.3-0.4 0.5-0.6 0.2-0.3-0.4-0.4-0.79-0.7-1.29-0.1-0.21-0.2-0.41-0.3-0.61-6.2 3.7-14.002 5.11-20.6 2.9 0.301 0.41 0.5 0.91 0.598 1.41 0.203 0.8-0.797 1.09-1.297 0.5-1-1.41-2.203-2.61-3.5-3.81-0.902-0.8-1.801-2.1-2.801-2.6-4.101-2.4-6 3.5-6.3 6.5v0.21c0.199 2.89 0.199 5.5 1 8.29 0.101 0.41-0.5 0.5-0.602 0.21-0.898-2.61-1.598-5.71-1.398-8.5v-0.11c-0.102-0.89-0.102-2 0.199-3-2-2.6-5.899-7.19-9.399-0.69-0.601 1.19-0.699 3-1.101 4.3-0.899 3.59-3.199 8.5-1.801 12.09 0.102 0.41 0 0.7-0.297 0.91 2.598 2.29 4.797 5.29 6.899 7.89 0.601 0.81 1.3 1.61 1.898 2.31-0.898-3-1.199-6.31-1-9.31 0-0.39 0.602-0.39 0.602 0-0.102 5.11 1.398 9.11 3.8 13.5 2.598 3.2 4.899 6.7 6.598 10.4 0.602-0.2 1.102-0.2 1.703-0.09 0.399-7.31-1.301-13.91-5.101-20.31-0.102-0.19 0.199-0.39 0.3-0.19 4.5 6 6.5 13.19 6.2 20.59 0.3-0.5 0.8-1 1.398-1.29 1.301-9.3 2-18.5-1.5-27.41-0.199-0.39 0.5-0.7 0.703-0.3 3.797 8.91 3.399 18 2.297 27.3 0.703 0 1.402 0.11 2 0.5 2.402-8.39 3.203-17 2.402-25.59-0.101-0.21-0.101-0.41-0.101-0.71-0.301-3-0.801-5.9-1.5-8.9-0.098-0.5 0.601-0.69 0.801-0.19 1 2.59 1.699 5.3 2.101 8.09 6.499-3.09 18.399-4.29 24.099 0.1 7.7 6 10 17.4 5.9 26-0.2 0.31-0.8 0.11-0.6-0.3 2-4.8 1.9-10.59 0-15.7-0.2 0-0.4 0-0.5-0.19-3.7-3.7-7.7-2.91-12.5-2.7-0.2 0-0.3-0.3 0-0.41 3.8-0.7 8.7-1.7 11.9 0.61-1.4-2.61-3.3-4.91-5.8-6.61-5.5-3.7-16.401-2.3-22.202 0.91 0.301 3 0.402 6 0.402 9 0 2.89-0.101 5.89-0.5 8.79 0.2-0.09 0.399-0.2 0.5-0.4 0.7-0.5 1.399-0.8 2.2-1.1 0.398-0.09 0.5 0.41 0.3 0.6-0.601 0.4-1.199 0.9-1.8 1.4-0.5 0.41-0.899 1.1-1.5 1.41-0.399 2.19-1.102 4.19-2.2 6.19 0.5-0.3 1.098-0.5 1.598-0.8 1.102-0.7 2.203-1.39 3.301-2.2 2.101-1.69 3.801-3.8 5.501-5.89 0.3-0.41 0.9-0.11 0.7 0.39-1.4 2.5-3.4 4.7-5.6 6.61-1.3 1.09-3.101 2.79-4.902 3.39 0.602 0.7 0.902 1.5 1 2.31 7.402-1.61 13.802-6.2 19.902-10.61 0.3-0.2 0.7 0.3 0.4 0.5-5.3 4.2-12.1 9.61-19.001 11.2 0.5 0.41 0.801 0.91 1.101 1.5v0.1c0.5 0 1 0 1.5-0.1 0.801-0.09 1.598-0.4 2.399-0.7 0.301-0.09 0.5 0.41 0.199 0.5-1 0.7-2.5 1.41-3.898 1.5 0.101 0.8-0.102 1.5-0.5 2.2 0 0.1 0.101 0.1 0.101 0.21 0.297 0.59 0.399 1.29 0.297 2 3.203-1.41 6.502-4.61 9.002-5.61 5.7-2.3 11.9-1.5 16.6-6.1 0.3-0.29 0.7 0.21 0.4 0.41-5.6 5.89-14.7 5.09-21.1 9.8-1.101 0.79-2.699 2.09-4.3 3 10.8 0.2 20.5-2.21 25.8-13.11 0.2-0.39 0.8-0.1 0.7 0.31-1.5 4.19-4.3 7.5-7.7 10 1.1 0.5 2.2 1.19 3.3 2 0-0.11 0.1-0.11 0.2-0.2 2.7-2.71 6.5-4.3 10.3-4.8-0.1-0.11-0.1-0.11-0.2-0.2-4.4-5-1.9-13.41-0.8-19.21 0.1-0.5 0.9-0.29 0.8 0.21-0.8 6-3.1 13.79 2.3 18.2 0.3 0.19 0.6 0.5 0.9 0.69h0.2c0.2 0 0.4 0.2 0.4 0.31 4.4 2.59 9.5 1.3 14.5 0.8 0.4 0 0.6 0.09 0.7 0.29 1.4-2.29 3.5-4.29 5.6-6.09-1.5 0.39-3.2 0.5-4.8 0.5-3 0-5.7-1.2-8.7-1.5-0.3 0-0.4-0.5 0-0.5 2.4 0 4.6 0.69 7 0.8 2.6 0.09 5-0.5 7.5-0.91-3.8 0.11-8-2.8-10.3-5.39-0.3-0.31 0.2-0.81 0.5-0.5 1.7 1.59 3.7 2.8 5.9 3.5 1.5 0.5 3 0.5 4.4 0.69-0.1-0.6-0.2-1.19-0.4-1.69-0.3-1-0.5-1.91-0.9-2.81-0.1 0.31-0.3 0.5-0.7 0.4-6.6-1.5-12.6-8-16.6-13.09-0.2-0.31 0.2-0.81 0.5-0.5 2.3 2.69 5.1 5.3 8 7.3 2.7 1.89 5.9 3.09 8.6 5-1.1-2.91-2.7-5.41-4.8-7.91-0.3-0.39 0.2-0.89 0.6-0.59 2.2 2.39 4.1 5 5.4 8.09 1 2.3 1.6 4.61 2.2 6.8 0.1 0.11 0.2 0.31 0.1 0.4 0.8 2.6 1.7 5.21 3.8 7.71 4.1 5.09 9.4 6 15.6 6 3.4 0 6.9-0.21 10.1-1.21-2.5-0.79-4.9-2.09-7-3.79-4-3.21-5.5-8.11-9.1-11.61-6.7-6.8-16.1-9.1-22.5-15.8 0.1 0.61-0.6 1-1 0.4-0.9-1.2-1.9-2.79-2.5-4.4-2.7-1.89-5.2-4.39-7-7.2-0.3-0.39 0.3-0.8 0.6-0.5 1.8 2.11 3.7 3.9 5.8 5.7-0.2-1.6 0.2-3.2 1.6-4.5 3.4-3.1 9.1-4.3 13.7-4.1-0.2-0.9-0.3-1.79-0.3-2.7-3.4-4.3-9.8-4.2-15.6-2.3-0.3 0.21-0.5 0.3-0.8 0.5-0.3 0.21-0.5 0.21-0.7 0.1-2.8 1.11-5.3 2.5-7 4-4.1 3.4-7.2 7.61-6 13.2 0.4 1.7 1.2 3 1.4 4.8 0.1 1.2-1.7 1.2-1.9 0-0.5-5.5-4.2-7.6-0.6-12.7 2.8-4 6.4-7.8 11-9.8 0.8-0.39 1.8-0.7 2.8-1.1l0.1-0.1c2.5-1.8 5.2-3.3 7.3-5.6 2.5-2.7 4-6.09 5.4-9.4 0.3-0.6 1.3-0.4 1 0.31-2.1 5.59-4.7 10.19-9 13.69 3.1-0.5 6.4-0.5 9 0.5-1.9-3.5-0.7-7.69-0.1-11.5 0.9-5.1 2.1-10 4.5-14.6-1.7 0.7-3.6 1-5.4 1.1 2.7 5.6 1.8 9.5-4.1 12-1.5 0.5-3 1-4.5 1.7-2 1.2-3.4 2.9-4.2 4.9-1.1 1.4-1 1.71-2.3 2.8-1.5 1.3-3.5 2-5.1 3.1-3 2-4.7 4.7-6.4 7.81 0.5 0 0.8 0.59 0.4 1-2.4 2.09-5.8 0.59-8.1-1-3.1-2.11-5.4-5-7.1-8.31-0.2-0.4 0.4-0.69 0.6-0.4 1.7 2.3 3.6 4.71 5.9 6.4 2.2 1.7 4.2 2.1 6.5 2.2-0.1-0.2-0.2-0.39-0.1-0.7 0-0.1 0.1-0.3 0.2-0.4-1.9-0.5-3.8-2.2-5-3.7-1.4-1.7-2.4-3.59-3-5.7-0.1-0.5 0.6-0.7 0.8-0.2 0.8 2 2.1 3.81 3.6 5.31 1.3 1.19 2.8 2 4.2 3 3.1-6.41 10.1-7.2 14.2-12.91 1.2-1.7 2-3 3.6-4.09-0.4-0.5-0.6-1.2-0.9-1.7-0.5-0.71-1-1.41-1.7-2-0.3-0.3 0.1-0.61 0.4-0.41 0.7 0.61 1.3 1.2 1.9 1.91 0.4 0.5 0.9 1.09 1.2 1.7 1.5-0.81 3.1-1 4.7-1.61 5-1.89 5.2-6.5 3.5-10.8h-0.1c-1 0-1-1.5 0-1.5 6.2-0.09 12.4-3.09 14.2-9.4 0.3-1 0.4-2 0.4-2.9-0.2-0.29-0.2-0.6-0.1-0.9-0.3-2.39-1.4-4.5-2.1-6.89-0.2-0.11-0.4-0.41-0.3-0.71v-0.4c-0.1-0.39-0.2-0.8-0.2-1.2 0-0.3 0.2-0.4 0.4-0.5 0.2-1.995 0.5-3.995 0.9-5.995-0.4 0.097-0.8 0.097-1.2-0.403-9.6-12.199-18.5-26.199-16.5-42.398 0.1-0.801 1.3-0.801 1.2 0v0.199c0.1 0.102 0.2 0.102 0.2 0.301 2.7 7.301 11.1 10.102 13.7 17.898 2.1 6.301 2 13 3.5 19.403 2.8-13 7.1-25.602 6.1-39.199-0.5-0.102-0.9-0.5-0.9-0.903h-0.1c-7.1-1.597-11.3-8.898-12.3-15.597-1.6-11 3.5-21.602 2.2-32.704 0-0.29638 0.1-0.39794 0.3-0.4995-0.1-0.59766 0.8-0.79688 1-0.19922 1.4 5.4023 5.8 8.6992 8.7 13.301 2.4 3.699 3.9 7.801 4.8 12.102 1.7 8 1.2 16.5-2.5 23.796 1.2 10.204-0.7 20.403-2.9 30.5 1.3-1.796 2.9-3.5 4.6-4.699 1.3-4.801 2.9-10.801 6.2-14.801 3.2-3.898 8-6.097 11.5-9.597 0.1-0.102 0.2-0.102 0.3-0.102v-0.398c0-0.602 0.9-0.602 1 0 1.1 11.898-6.9 22.5-17.6 26.801-0.3 0.097-0.5 0.097-0.7 0-1.4 1-2.7 2.097-3.8 3.398-0.8 1-1.6 2-2.2 3.199-1.5 6.403-3 12.801-3.9 19.097 0 0.1-0.1 0.31-0.2 0.31 0.8 1.89 1.7 3.59 2.1 5.59 1.6-1.2 2.9-2.7 4.1-4.3 0.8-8.396 6.7-17.396 12.8-22.998 3.9-3.597 9.3-5.296 14.1-7.398 5.1-2.199 10.2-4.199 15.3-6.301 0.3-0.301 0.6-0.597 0.9-0.898 0.2-0.199 0.6 0.097 0.4 0.301-0.1 0.097-0.1 0.199-0.2 0.296 0.1 0.102 0.1 0.204 0 0.301-0.1 0.102-0.2 0.102-0.3 0.199-1.7 2.102-3.6 3.801-5.4 5.704 0 0.097-0.1 0.199-0.2 0.199s-0.1 0.097-0.2 0.097c-1.3 1.403-2.5 2.903-3.6 4.704-2.2 4-4.8 7.699-7.9 11-4.1 4.398-9 8.296-14.4 11.094h0.2c6.3-0.09 10.8 4.1 14.6 8.7v0.1c1.7-0.5 3.2-1 4.8-1.3h0.2c1.5-0.3 3.2-0.4 5-0.2 2.8 0.3 5.3 0.8 7.5 1.7-0.4-0.9-0.3-2-0.2-3 0.1-1.2 0.1-2.4 0.6-3.5-0.2 0-0.3 0-0.5-0.09-5.3-3.11-1.4-12.407 0.1-16.504 0.2-0.5 1-0.301 0.9 0.199v0.199c2.5 4.199 2.7 11.102 0.6 15.496-0.1 0.2-0.2 0.3-0.3 0.4l-0.1 0.1c0.1 0.11 0.2 0.2 0.2 0.3 0.1 1.2 0 2.4 0.2 3.6 0.1 0.5 0.3 1.1 0.4 1.6 4.3-5.8 7.7-12.098 10.2-18.695-0.3-1.403-0.1-2.699-0.4-4.102-0.3-1.301-0.9-2.398-1.4-3.597-1.4 0.597-2.9-0.403-3.6-1.602-0.7-1.102-0.7-2.602 0.1-3.699 0.6-0.903 1.7-0.903 2.5-0.199 1.2 1 1.2 2.5 1.5 3.898v0.398c0 0.102 0.1 0.204 0.1 0.204 1.2 1.296 2.2 3.398 2.5 5.398 1.4-4.199 2.4-8.602 3-13-0.3 0.301-0.9 0.301-1.2-0.102-1.8-0.199-3.5-1.398-4.5-2.796-0.9-1.102-1.6-3.301-0.2-4.403 1-0.801 2.2-0.5 3.2 0.102v-0.199c0.1-0.5 0.2-1.102 0.5-1.5 0.5-0.704 1.3-1.204 2.3-1.102 0.9 0.102 1.7 0.801 2 1.602 0.2 0.5 0.4 1.199 0.4 1.796 0.8-0.699 2.8-1.796 3.7-0.796 1.1 1.097-0.1 3.199-1 4.097-1 1-2.4 1.699-3.8 2.199v0.204c-0.6 6.898-2.2 13.699-4.8 20 2.4-0.903 4.8-1.704 7-3.102 3.1-2.102 5.6-5.199 8.3-7.801v-0.199c-0.3-2 0.4-3.801 1.5-5.398 1-1.301 2.9-3.204 4.6-2.403 1.7 0.699 1.4 2.903 0.5 4.199-1.3 1.704-3.6 3.403-5.7 4.204 0.1 0.199 0 0.398-0.1 0.597-4.8 5.5-10 10.801-17.3 12.801-1.1 2.5-2.3 4.896-3.7 7.196 1.6-0.09 3.2-0.09 4.8 0 0-0.09 0.1-0.2 0.2-0.3 2.2-2.998 5.2-5.095 8.9-5.697 5.3-0.898 10.2 2.699 15.4 1.199 0.4-0.097 0.5 0.403 0.3 0.602 0.2 0.102 0.2 0.398 0 0.602-7 4.894-15.1 8.894-23.7 5.794-0.5-0.2-0.7-0.5-0.8-0.9-2 0.2-3.9 0.5-5.9 0.4h-0.1c-1.5 2.5-3.2 4.8-5 7.1 1.3 0.9 2.5 2 3.4 3.5 4.5-5.1 13.5-10.3 20.2-5.8 1.2 0.8 1.5 1.41 2.1 2.6 2.1 3.9 1.6 6.7 6.2 9.6 2.5 1.5 5 1.9 5.8 5 0.1 0.5-0.5 0.9-0.9 0.5-3-3.79-8.3-4-10.5-8.5-2.6-5.29-3.2-9.2-10.6-8.7-4.9 0.3-8.5 2.8-11.8 6.3 0 0-0.1 0-0.1 0.11 0.4 0.69 0.7 1.5 1 2.39 1.4 4 1.5 8.3 0.7 12.4 0.4 0 0.7 0 1.1 0.1 0.3-1.7 1.6-3 2.8-4.5 2.2-2.6 3.3-5.89 5.5-8.5 0.2-0.3 0.7 0.11 0.5 0.4-1.5 2.21-2.2 4.9-3.5 7.21-1.2 2.09-2.9 3.59-3.6 5.69 1.7 0.4 3.2 1.1 4.5 2 3-3.4 6.2-6.5 8.8-10.3 0.3-0.39 0.9-0.1 0.7 0.4-1.7 4-5.1 7.71-8.3 10.9 1.8 1.6 3.1 3.6 3.8 5.81 1.2-1.5 2.8-2.71 4.5-3.81 0.4-0.19 0.8 0.31 0.5 0.6-1.7 1.4-3.1 3.1-4.5 4.71 0.6 2.89 0.4 6-0.8 9-0.1 0.09-0.1 0.29-0.2 0.39-0.2 1-0.4 1.9-0.6 2.9 1.6-1.5 3.4-2.79 5.1-4.4 4.4-4.2 7.4-9.2 9.6-14.89 0.1-0.41 0.7-0.21 0.6 0.19-1.2 4.7-3.4 9-6.4 12.81-2.7 3.39-6.8 5.89-9.4 9.39-0.5 2.7-1 5.5-1.6 8.11 6.1-2.61 11.4-6.91 15.1-12.41 0.2-0.3 0.6 0 0.5 0.3-3.7 6.5-9 11.3-15.9 14.11h-0.2c-0.2 0.59-0.3 1.19-0.5 1.79h0.1c4.3-0.4 8.3-2.4 11.3-5.5 0.3-0.29 0.7 0.1 0.4 0.4-3.1 3.5-6.9 5.6-11.6 6.31-0.3 0-0.5-0.11-0.6-0.21-0.4 1.21-0.9 2.3-1.4 3.4h0.3c20.5 4.1 44.5-27.5 28-44.3-0.3-0.3 0.2-0.8 0.5-0.5 8 6.2 7.1 19 3.3 27.9 6.7 3.1 7.1 11.71 5.5 18.1-1.8 7.5-6.8 13.3-13.8 16.3 3 1.81 5.9 3.1 8.5 5.6 4.3 4 8.6 10.3 7.7 16.5-0.7 4.8-4.5 8.4-9.2 8.8-1 0.1-1-1.5 0-1.59 11.8-1.11 7.1-14.91 2.3-20.5-3.4-3.91-7.7-5.71-11.9-8.41-2.9-1.9-4.9-4.59-7.3-7-5.2-5.3-11.1-5.3-18-4l0.1 0.1c0.1 0.2 0.1 0.4 0.2 0.6 12.5 4.4 24.2 12.9 31 24.3 0.2 0.3-0.3 0.5-0.4 0.3-8.1-10.6-17.5-18.39-30.1-22.7 0.5 2.5 0.5 5.11 0 7.5 7.4 2.11 14.5 5.2 19.3 11.4 0.2 0.3-0.2 0.7-0.4 0.41-5.1-5.81-12.2-8-19.3-10.21-0.2 0.6-0.3 1.1-0.6 1.71 12 7.29 24.7 14.89 32.6 26.89 0.2 0.2-0.2 0.5-0.4 0.3-8.8-11.3-20.5-18.69-32.8-25.6-0.3 0.6-0.7 1.3-1.1 1.91-0.6 0.89-1.2 1.79-2 2.59 4.1 1.5 8.5 5.6 11.7 8.1 4.6 3.7 8.7 7.9 11.8 12.81 0.2 0.29-0.3 0.59-0.5 0.29-3.3-4.9-7.3-8.7-12.1-12.1-2-1.4-4-2.69-6-4-1.2-0.69-5.8-2.6-5.8-4.19 0 0.39-0.3 0.59-0.7 0.59-0.5 0.41-1 0.8-1.6 1.1-1.4 0.81-2.9 1.11-4.5 1.2 5 3.5 8.8 7.8 12.4 12.8 5.3 7.4 12.2 11.5 20 15.5 1.3-0.6 2.5-1.3 3.6-2.3 2.9-2.6 4.5-5.89 8.1-7.7 0.3-0.19 0.6 0.31 0.3 0.5-4.5 2.7-5.7 8.61-10.4 11.11-3.6 1.89-8.4 2.5-13 2.29 4.8 4.8 9.9 12.71 8.1 19.41-0.4 1.5-1.1 2.5-2 3.69-2.2 3-1.8 4.9-2.2 8.4-0.5 4.3-2.7 8.21-4.9 11.8-0.2 0.3-0.5 0.41-0.8 0.41 2.4 4.59 5.7 8.7 7.7 13.59 0.6 1.41 1.1 2.8 1.5 4.2 0.7-2.2 2.1-4 3.6-5.9v-0.1c0-0.29 0.2-0.5 0.4-0.5 2.9-4.09 3.9-8.7 6.4-12.9 3.3-5.69 9.7-7.69 15.2-10.89 0.1-0.21 0.3-0.3 0.4-0.3 2.3-1.31 4.4-2.91 6.1-5-0.1-0.2-0.1-0.31-0.2-0.5-0.3-0.7 0.6-1.11 1.1-0.7 0 0 0.1 0 0.2-0.11 0.6-0.6 1.8-0.19 1.5 0.81-0.2 0.59-0.4 1.3-0.6 1.89 2.4 7 2.6 14.61 2 22-0.5 6.5-0.8 14.61-3.6 20.61-1.1 2.3-2.7 4.3-4.7 6.09 2.7-1.4 5.7-2.5 8.8-3.2 2.8-1.5 4.9-3.59 6.7-6.3 1.5-2.2 2.6-4.59 4.1-6.7-0.1 0-0.1-0.09-0.2-0.2-0.6-1.39-0.8-3.3-0.2-4.8 0.4-1 1.4-2.09 2.6-1.89 1.1 0.19 1.6 1.3 1.6 2.3 0 0.79-0.5 1.5-0.9 2.09-0.5 0.8-0.9 1.5-1.4 2.41-0.1 0.2-0.2 0.2-0.3 0.29-1.9 4.1-4.7 9-8.6 12 5.9-1 12-1 17.4 0.1h0.1c-0.1-0.1-0.1-0.1-0.1-0.19-0.3-1.41 1.3-3.11 2.2-4 0.9-0.91 3.1-1.81 3.6 0.09 0.2 0.8 0 1.71-0.5 2.5 1.7 1.21 2.3 2.41 1.9 3.6zm-114.8-124.19c3.8 1.79 8.3 1.59 12.4 1.69 3.9 0 9.3 0.6 12.6-1.8 0.8-0.6 0.4-1.89-0.7-1.6-3.9 0.9-7.9 1.1-11.9 1.4-3.9 0.31-8.3 0.9-12-0.6-0.6-0.4-1 0.6-0.4 0.91zm-4.2-60.71c0.5-0.4 0.5-1.1 0.5-1.6 0.1-0.6 0.2-1.19 0.1-1.69s-0.8-0.5-1-0.11c-0.4 0.5-0.4 1.11-0.6 1.7-0.1 0.6-0.4 1.1 0 1.7 0.2 0.3 0.6 0.3 1 0zm-19.8 151.1c0.1 0.7-0.1 1.61 0.6 2 0.2 0.11 0.5 0 0.7-0.2 0.4-0.6-0.2-1.39-0.4-2.1-0.2-0.5-1-0.2-0.9 0.3zm-83.699 21c0.598 0.61 1.399-0.3 0.899-0.89-1.2-1.5-2.5-3-3.602-4.5-1.098-1.61-2.797-3.41-3-5.41 0-0.5-0.797-0.5-0.797 0 0.098 2.1 1.199 3.71 2.297 5.41 1.301 1.8 2.703 3.8 4.203 5.39zm-20.703-67c0.602-0.7 1.301-1.39 1.902-2.2 0.5-0.6 1.301-1.3 1.5-2.1 0.2-0.5-0.402-1-0.902-0.7-0.699 0.4-1.199 1.3-1.699 2-0.598 0.8-1.098 1.61-1.598 2.4-0.301 0.5 0.5 1.1 0.797 0.6zm17.5 0.8c0.602-0.5 1.703-1.4 1.301-2.3-0.098-0.2-0.301-0.2-0.5-0.2-0.399 0.1-0.5 0.4-0.699 0.7-0.2 0.4-0.5 0.8-0.801 1.11-0.399 0.5 0.301 1.19 0.699 0.69zm12.801-99.9c0.699-0.4 1.402-0.7 2.101-0.9 0.598-0.2 1.301-0.3 1.7-0.7 0.199-0.19 0.101-0.6-0.2-0.69-0.699-0.11-1.3 0.29-1.902 0.59-0.699 0.41-1.398 0.8-2.098 1.3-0.199 0.11 0.098 0.61 0.399 0.4zm120.5 296.4c-0.1 0-0.2-0.1-0.2-0.19-0.5 0.39-1 0.89-1.5 1.3 0.5 0.89 1.1 1.7 1.7 2.5 1.4-0.3 3 0 4.2 0.29 0.5 0.1 0.4 0.91-0.1 0.8-0.8-0.09-1.6-0.2-2.4-0.2h-1c0.5 0.7 1.1 1.4 1.7 2 1.5-0.19 3.1 0.2 4.6 0.4 0.3 0.1 0.2 0.6-0.1 0.6-1.2-0.1-2.3 0-3.5 0 0.3 0.31 0.6 0.61 0.9 0.9 2.3 2.1 4.8 3.71 7.4 5.3-0.5-2.09-0.6-4.39-1.9-6.39-2.2-3.11-6.1-6-9.8-7.31zm7.5 13.61c-1.9-1.3-3.7-3-5.3-4.8 0 0.59 0.2 1.09 0.4 1.69v0.11c0.2 0.2 0.4 0.29 0.6 0.5 1.4 1 2.9 1.79 4.3 2.5zm-5.9-5.71c-0.7-0.9-1.4-1.9-2.1-2.79-0.1 0.39-0.1 0.79-0.1 1.09 0 0.2 0 0.3 0.1 0.5 0.6 0.8 1.2 1.61 1.9 2.41 0-0.41 0.1-0.8 0.2-1.21zm-1 3.5c-1.4-1.29-2.6-2.79-3.5-4.4 0.1 1.61 0.2 3.2 0.3 4.81 0.2 0.19 0.4 0.5 0.6 0.69 0.5 0.5 1 1.11 1.5 1.61 0.4 0.39-0.2 0.89-0.6 0.59-0.5-0.5-1-0.89-1.5-1.39 0.2 3 0.6 6.09 2.1 8.89 0.9-3.5 1.2-7.2 1.1-10.8zm-2.6 11.41c-1.6-3.2-2-6.81-2.2-10.5-0.5 2-0.7 4-0.8 6.19v0.2c0.9 1.41 2 2.8 3 4.11zm-4.1-5.81c0.1-2.3 0.8-4.69 1.8-6.8 0-1.2-0.1-2.39-0.1-3.59-1.6 2-2.4 4.39-2.9 6.89 0 0.2-0.2 0.31-0.3 0.4 0.4 1.1 0.9 2.1 1.5 3.1zm-2.1-5.1c0.6-2.29 1.8-4.2 3.3-6.09 0.1-0.11 0.3-0.2 0.4-0.11 0-0.8-0.1-1.59-0.2-2.39-1.1 0.8-2.3 1.59-3.6 2.3 0.1 0.09 0.1 0.2 0 0.39-0.3 2.2-0.3 4.11 0.1 5.9zm4.7-9.4c0.2 0 0.3 0.11 0.4 0.31 0.5 0.89 1 1.69 1.6 2.5 0.1-0.31 0.3-0.5 0.4-0.81 0-0.1 0.1-0.1 0.2-0.1-0.6-0.9-1.1-1.79-1.6-2.7-0.3 0.3-0.7 0.61-1 0.8zm-45 14.31v0c-0.6-0.11-1.2-0.11-1.8-0.2-0.7-0.11-1.4-0.21-2-0.3 0.1 0.19 0.1 0.39 0.2 0.59 0.5 0 0.9 0.5 1.3 0.8 0.4 0.41 0.8 0.91 1.2 1.41 0.3 0.39-0.3 0.79-0.6 0.5-0.4-0.41-0.8-0.8-1.2-1.21-0.1-0.09-0.1-0.09-0.2-0.2 0.2 0.8 0.4 1.61 0.6 2.41 1.1 1.2 2 2.59 2.7 4.09 0.2 0.41-0.4 0.8-0.6 0.41-0.5-1-1-1.8-1.7-2.61 0.4 2.61 0.6 5.2 0.6 7.9 0.2 0.3 0.4 0.6 0.6 0.91 1.4-4.91 1.9-9.2 0.9-14.5zm-3.1 11.8c-0.1-2.61-0.3-5.21-0.7-7.8l-0.1-0.11c-0.3 0.8-0.8 1.61-1 2.5-0.2 0.91-0.3 1.8-0.3 2.7 0.6 0.71 1.1 1.41 1.7 2.1 0.1 0.2 0.2 0.4 0.4 0.61zm-2.9-3.71c0.1-1.7 0.5-3.5 1.5-4.79-0.3-0.3 0-0.8 0.4-0.71-0.2-0.79-0.3-1.7-0.5-2.5-1.3 1.91-2.3 3.91-2.7 6.21 0.4 0.59 0.9 1.2 1.3 1.79zm0.9-8.9c-0.8-0.19-1.5-0.39-2.3-0.69-0.2 0.39-0.6 0.8-0.8 1.19-0.4 0.81-0.6 1.61-0.6 2.4 0 0.21-0.1 0.3-0.2 0.41 0.3 0.89 0.6 1.8 1.1 2.59 0.4-2.2 1.3-4.29 2.8-5.9zm-4.1 0.2c0.2-0.39 0.4-0.89 0.8-1.3-0.2-0.09-0.5-0.2-0.7-0.29-0.2 0.7-0.3 1.39-0.2 2.09-0.1-0.2 0-0.39 0.1-0.5zm-10.4 18.3c0.2 1.7 0.3 3.5 0.4 5.2 1.8 2 3 4.41 3.8 6.91 0.1 0.29-0.4 0.5-0.5 0.09-0.7-2-1.9-3.7-3.2-5.3v6.3c1.2 1.8 2.2 3.8 2.7 5.91 0.1 0.29-0.4 0.59-0.6 0.2-0.7-1.41-1.4-2.81-2.2-4.2 0 1.79-0.1 3.59-0.1 5.5 0.6 0.09 0.7 0.79 0.9 1.2 0.3 0.59 0.5 1.19 0.8 1.8 0.2 0.39-0.4 0.7-0.6 0.29-0.4-0.59-0.7-1.2-1.1-1.79l-0.1-0.11c0 3.81 0.2 7.5 0.8 11.2 2.3-4.89 4.7-9.7 5.2-15.2 0.9-7.1-1.3-12.89-6.2-18zm-0.5 10.5c-0.1 0.11-0.1 0.11-0.2 0.11 0 0.09-0.1 0.09-0.1 0.2-2.7 3-4.1 6.39-4.5 10.3 0.2 0.59 0.3 1.09 0.5 1.7 0.7-2.7 3.3-4.91 4.3-7.5 0-0.5 0-1 0.1-1.5-0.1-0.2-0.1-0.41 0-0.5-0.1-1-0.1-1.91-0.1-2.81zm-0.2 7.2c-1.4 2.3-3.2 4.3-3.2 7.2 0.3 0.71 0.6 1.41 1 2 0.1-0.2 0.2-0.4 0.3-0.7 0.4-1 1-2 1.4-3 0-0.09 0.1-0.09 0.1-0.09 0.1-1.21 0.2-2.3 0.3-3.5 0-0.61 0-1.21 0.1-1.91zm-0.5 13c-0.2-1.89-0.2-3.89-0.1-5.8-0.2 0.6-0.4 1.3-0.6 1.91-0.2 0.5-0.3 1-0.5 1.39 0.4 0.8 0.9 1.7 1.2 2.5zm-4.8-12.5c0.8-3 2.3-5.8 4.5-8.2 0.1-0.1 0.2-0.1 0.3-0.1 0.2-0.59 0.3-1.2 0.5-1.79 0-0.11 0.1-0.21 0.2-0.3 0-0.61 0-1.31-0.1-1.91-0.1-0.09-0.1-0.2-0.2-0.2 0 0 0-0.09-0.1-0.09-2.4 2.29-3.9 4.79-5.2 7.89-0.2 1.5-0.1 3.11 0.1 4.7zm0.6-9.09c1.2-1.91 2.9-3.61 4.7-4.71-0.1-1.5-0.2-3-0.4-4.5-2 2.8-3.5 5.91-4.3 9.21zm-10.7-18.5c0.7-1.41 1.7-2.61 2.9-3.71-0.1 0-0.2 0.1-0.3 0.1-0.5 0.2-1 0.5-1.5 0.61-0.4 1-0.8 2-1.1 3zm1.7-4.3c0.1 0 0.2-0.11 0.3-0.11 0.8-0.3 1.7-0.59 2.5-0.8h0.2c0.1-0.09 0.1-0.09 0.2-0.2v-0.2c0.1-0.19 0.3-0.3 0.5-0.19 0.6-0.5 1.2-1 1.9-1.5-1.4 0.19-2.8 0.59-4.1 1.19-0.2 0.11-0.3 0.11-0.4 0-0.5 0.5-0.8 1.11-1.1 1.81zm1.8-3.11c1.5-0.59 3.1-0.89 4.8-0.89 0.2-0.2 0.5-0.41 0.7-0.61 0.1-0.3 0.2-0.59 0.3-0.89 0.1-0.31 0.5-0.2 0.7 0 0.3-0.2 0.5-0.5 0.7-0.7-0.9 0.09-1.7 0.09-2.6 0.2-0.7 0-1.5 0.09-2.2 0.09-0.8 0.8-1.6 1.6-2.3 2.5 0 0.1 0 0.21-0.1 0.3zm4.1-4.09c1.2-0.11 2.4-0.11 3.5 0.2 0.1 0 0.2 0.09 0.2 0.3 1.2-1.11 2.3-2.21 3.4-3.5-2.5 0.5-4.9 1.5-7.1 3zm-13.2-35.5c-1.1 0.29-2.2 0.59-3.3 0.7 0.8 0.09 1.6 0.3 2.4 0.5 0.3-0.41 0.6-0.81 0.9-1.2zm-4.1 14.59c-0.5-0.09-0.9-0.2-1.4-0.3-0.3 0.21-0.6 0.5-0.9 0.71 1.8 9.39 2.6 19.09 2.6 28.7 0.3-1 0.8-2 1.6-3s1.6-1.91 2.3-2.81c-1.5-2.19-0.9-8.1-1.3-10.6-0.6-4.4-1.7-8.5-2.9-12.7zm2.7 4.3c0.6 2.4 1 4.81 1.4 7.2 0.2 1.5 0.4 3 0.5 4.5 0.1 1.11 0.2 2.3 0.2 3.5 0.2 1.2 0 2.3-0.4 3.41 0.1-0.11 0.2-0.11 0.2 0 2.9-4 4.5-7.8 3.5-13.71 0-0.29 0.1-0.5 0.2-0.59-2.4-1.11-4.3-2.5-5.6-4.31zm-3.1 27.61c0-10.5-0.9-20.61-2.6-30.8-0.3 0.19-0.5 0.5-0.8 0.69 0 0.4-0.2 0.7-0.5 0.81 0 0 0 0.09 0.1 0.09 1.6 6.41 1.3 13.1 1.1 19.6-0.1 5.7-0.2 11.2-2 16.61 0.1 0 0.1-0.11 0.2-0.11 3.2-1.8 3.9-4.3 4.5-6.89zm-5.6 7.29c2.9-11.59 1.5-24.2 0.4-35.9-1.4 1.31-2.8 2.61-4.1 4 0.1 0.11 0.2 0.2 0.2 0.31 1.8 10.89 1.7 22.39-0.4 33.3 1.2-0.5 2.6-1.11 3.9-1.71zm-4.8 1.91c1.3-11.11 1.3-21.7 0.1-32.91-1.4 1.5-2.8 3-4.1 4.5 0.9 9.91 0.6 19.91-1.2 29.71 1.8-0.41 3.6-0.8 5.2-1.3zm-5.6-26.41c-0.6 0.71-1.2 1.5-1.8 2.21-0.1 8.89-1.1 17.7-2.8 26.39 1.4-0.19 2.8-0.39 4.2-0.69 1-9.41 1.2-18.61 0.4-27.91zm-5.201 28.71c1.101-8.21 1.801-16.5 2.101-24.8-1.1 1.39-2.101 2.8-3.101 4.3 0.199 6.79 0.402 14.7-2.5 21 1.101-0.21 2.301-0.3 3.5-0.5zm-4.598 0.59c1.899-6.5 2.297-12.5 2.199-19.09-2.402 3.5-4.699 7.2-6.902 10.89-0.098 3.11-0.797 6.11-1.699 9 2.101-0.3 4.199-0.5 6.402-0.8zm-6.902 0.91c0.402-2.21 0.601-4.41 0.801-6.71-1.399 2.41-2.801 4.8-4.2 7.21 1.098-0.21 2.2-0.41 3.399-0.5zm-4.399-14.41c0.801 2.2 1.5 4.5 1.399 7.11 0 0.69-0.098 1.39-0.199 2.09 2.8-4.7 5.8-9.59 9-14.29-3.7 1-7.7 2.29-10.2 5.09zm-0.3-0.8c2.8-2.9 7.699-4.9 11.601-5.9 1.199-1.8 2.5-3.5 3.797-5.3-2.199 0.8-4.5 1.41-6.598 2.2-3.5 1.3-6.902 2.71-10.3 4.21 0.398 1.7 0.898 3.2 1.5 4.79zm-1.602-5.4c5.5-3 12-6.19 18.202-7.19 1.6-2 3.2-4 4.9-5.91-7.801 2.1-16.899 2.5-23 7.8-0.301 1.41-0.5 2.91-0.301 4.61 0.101 0.3 0.101 0.5 0.199 0.69zm0.5-7c2.703-2.19 5.902-3.3 9.301-4.39 5.101-1.61 10.401-3.41 15.601-4.21 0.4-0.4 0.9-0.9 1.3-1.29-8.999-1.21-17.1-0.11-25.6 3.59 0.101 0.8 0.101 1.7 0.101 2.5-0.101 1.3-0.402 2.61-0.703 3.8zm0.5-8.8c0 0.61 0.102 1.2 0.102 1.8 8-4.5 17.9-6.1 26.9-4.1 1.4-1.29 2.8-2.59 4.3-3.79-10.2-0.91-21.802-1.5-31.099 3.09-0.101 0.91-0.203 1.91-0.203 3zm38.902-10.3l-0.1 0.1 0.1-0.1v0zm-38.5 6.21c8.801-5.21 23-5.11 32.7-3.5 0.7-0.5 1.3-1 2-1.5v-0.11c-9.8-1.89-19.399-2.69-29.5-2.1-0.301 0-0.399-0.5-0.102-0.5 10.402-1.4 21.202-1 31.402 1.6 0.5-0.39 1.1-0.69 1.6-1.1 0.1-0.09 0.2-0.09 0.3-0.09 0-1.11 0-2.2 0.2-3.31-9.8-1.19-19.5-1-29.299-0.3-4.703 2.41-8.101 6-9.301 10.91zm33.6-18.8c-1.1-0.5-2-1.31-2.7-2.61-0.2-0.3-0.2-0.7 0-1-1.4 1.7-3 2.91-4.9 4.11 2.4-0.41 5-0.5 7.6-0.5zm-24.502-55c-0.098-0.2-0.199-0.5-0.199-0.7 0 0.29-0.199 0.59-0.5 0.59 0.199 0 0.402 0.11 0.699 0.11zm170.3 10c-1 1.5-1.6 1.69-3.2 2.59-4.7 2.6-6.1 3.71-7.8 8.8-1.8 5.3-3.9 10.3-6.8 15.2-3 5.1-9.2 16-16.2 18.3-2.4 7.8-6.6 15-12.5 20.61 3-0.41 6.6 3.39 8.4 5.39 3.3 3.61 3.5 7.5 5.1 11.91 0.2 0.5-0.1 0.79-0.5 0.89-0.2 0.31-0.4 0.5-0.8 0.4-3.8-0.4-7.7-2.09-11-4.7 0.5 4.61 0 9-1.6 13.5 0 0.11 0.1 0.11 0.1 0.2 0.6 0.91-0.8 1.71-1.4 0.8-0.4-0.09-0.8-0.5-0.7-1-4.3-5.89-9.9-12.09-8-19.8-6 3.3-13.1 5.3-19.2 2.5-4.9 4.91-11.4 7.71-18.3 7.8 1.5 5.3 1 11.91-1.7 16.7 0.1 0.41 0.1 0.71 0.1 1.1 0 0.9-1.4 1.11-1.6 0.2-0.2-1-0.6-2-1.1-2.89-0.1-0.11-0.2-0.2-0.2-0.41-1.3-2.29-3.1-4.4-4.7-6.59-0.2 0-0.4-0.11-0.4-0.31v-0.19c-2.1-3-3.5-6.11-2.2-10.2v-0.11c-1.1-0.5-2.1-1.1-3.1-1.8h-0.1c-2 2.8-3.9 5.61-4.7 8.91-0.9 3.7-0.7 7.59-1.5 11.29 0.1 0.1 0.1 0.21 0.1 0.41h0.1c4.8 3.59 7.6 9.39 8.3 15.3 1.1 9-3.5 16.29-6.8 24.2-0.1 0.3-0.3 0.5-0.5 0.59v0.3c0 0.7-1.1 1.11-1.5 0.41-6.3-13.21-12.5-28.91-0.9-41.11-0.1-0.1-0.2-0.19-0.2-0.39 0.2-8 1.9-14.3 6.6-20.61-1.3-0.8-2.5-1.5-3.8-2.1 1.5 10.71-12.6 16.71-19.7 21.71-0.9 0.59-1.9-0.8-1.1-1.5 0.3-0.21 0.5-0.5 0.8-0.71 0.5-2.29 1.6-4.7 2.5-6.9-0.1-0.1-0.2-0.3 0-0.5 0.1-0.1 0.2-0.19 0.3-0.3 0.8-2 1.7-3.89 3.1-5.5 0.3-0.39 0.6-0.7 1-1.09-0.2-0.3-0.1-0.71 0.3-0.8 0.2 0 0.4-0.11 0.7-0.11 2.6-2.3 5.7-3.7 9.2-4.3 0.5-0.09 0.8 0.5 0.5 0.8 0.3 0 0.6 0.3 0.4 0.61-0.8 1-1.7 2-2.5 3 0.3 0.5 0.1 1 0 1.59-0.1 0.71-0.2 1.41-0.3 2-0.1 0.5-0.9 0.5-0.8 0 0.1-0.7 0.1-1.4 0.1-2.09v-0.61c-0.7 0.7-1.5 1.41-2.3 2.11 0 0.09-0.1 0.3-0.1 0.39-0.2 0.7-0.3 1.41-0.5 2.11-0.1 0.5-0.8 0.3-0.7-0.2 0.1-0.41 0.1-0.91 0.2-1.3-0.2 0.19-0.5 0.39-0.7 0.59-0.9 0.71-1.7 1.41-2.5 2-0.2 0.91-0.3 1.91-0.4 2.91 0 0.39-0.6 0.39-0.6 0 0-0.7 0-1.41 0.1-2.11-1.7 1.61-3.2 3.3-4.2 5.5 7-4.89 15.6-8.09 16.1-17.89-3.5-1.7-7.1-3-11.2-4.11-1.1-0.3-0.9-2.09 0.3-2 4.7 0.2 8.4 1.91 12 4 0.7-5.8 3.9-11.5 5.1-17.3 1.5-7.2 2.4-16.59 0.4-23.9-0.6-0.19-1.1-0.39-1.7-0.6-0.7 9.6-2.6 19.3-8.5 27.1-0.2 0.31-0.8 0-0.5-0.3 5.4-8.39 6.3-17.8 7.3-27.5-0.7-0.3-1.4-0.7-2.1-1-0.3 1.7-1.5 3.11-2.5 4.61-1.6 2.3-3.2 4.69-4.5 7.19-0.3 0.5-0.9 0.11-0.7-0.39 0.9-2 1.9-4 3-5.91 0.9-1.59 2.4-3.3 3-5.2-5.5 5.31-11.4 10.61-18.5 13.4-0.2 0.1-0.5 0.21-0.7 0.3 0.1 0.2 0.1 0.41 0.1 0.61-0.9 3.59-3.7 6.5-4.4 10.09-1.2 6.1 3.7 10.21 8.6 12.3 0.7 0.3 0.2 1.2-0.5 1.11-0.3-0.11-0.5-0.11-0.8-0.2 1.4 5.2 0.4 10.7-2.9 15.09-0.7 0.91-1.6 1.61-2.3 2.5-1.7 2.2-1.9 4.8-2.6 7.61-0.4 1.59-0.5 2.69-1.7 4.09-3.6 4.21-11.7 5.1-16.6 6.3-7.301 1.8-15.2 3.91-22.801 3.8 0 0.11-0.098 0.11-0.098 0.2-0.5 0.5-1.402 0-1.203-0.7 0-0.1 0.102-0.3 0.102-0.39 0-0.21 0.101-0.41 0.199-0.61 1.101-3.19 2.5-6.3 2.5-9.8 0-3.89-1.399-7.09-2.399-10.8-1.5-5.5 1-9.4 0.801-14.9-0.101-1.8 0-3.5 0.297-5.19v-0.31c0.902-5.89 4-11.1 10.102-13.39-6.7 1.29-13.899 1.7-19.5-2.8-5.602-4.41-7.5-11.2-7-18.11-3.2 0.61-6.5 0.41-9.2-0.59-0.601-0.21-0.601-1.21 0.2-1.21 2.898 0.3 5.5 0.5 8.3-0.09 2.5-0.5 4.7-1.81 7-2.7 0.7-0.3 1.098 0.7 0.7 1.2-1.399 1.39-3.2 2.39-5.2 3 0.2 5.69 1.5 11.69 5.598 16 9.902-3.61 17.602-11.5 27.902-14.2 0.4-0.11 0.6 0.5 0.2 0.59-10 2.91-17.301 11-26.801 14.8 0.699 0.61 1.402 1.11 2.199 1.5 0-0.1 0.102-0.19 0.203-0.19 0.899-0.61 2-0.81 2.899-1.31 0.898-0.5 1.699-1 2.601-1.6 1.699-1.09 3.297-1.9 5.199-2.29 0.399-0.11 0.5 0.5 0.2 0.59-2.2 0.5-4 2-5.801 3.3-1.098 0.81-2.5 1.9-3.899 2.11 4.5 1.89 9.801 1.59 14.598 1.29 0.301 0 0.402 0.41 0.203 0.6 0.297-0.1 0.5-0.19 0.797-0.3 0.602-0.2 1 0.41 1 0.91 9.302-1.5 18.702-1.3 28.102-0.21 0.4-1.4 0.9-2.79 1.6-4.2-5.3-0.89-10.5-1.3-15.9-1.09h-0.1c-0.1 0-0.1 0.09-0.2 0.09-3.6 1.91-8.1 4.61-12.201 4.2-0.899-0.09-1-1.2-0.199-1.5 7-2.5 15.2-4 19.8-10.59 0.3-0.5 1.1-0.11 0.8 0.5-0.4 0.69-0.8 1.3-1.2 1.89 0.4-0.3 1-0.39 1.5 0.11 4.2 5.09 13.7 0 18-2.5 4.6-2.61 8.7-6.11 12.6-9.61-2-1.3-4-2.8-5.8-4.5l-0.1-0.09c-3.8 1.5-7.3 2.39-9.8 6.2-0.2 0.3-0.6 0-0.5-0.31 2-3.3 4.3-4.69 7.7-6.3 4-1.89 8-3.89 11.5-6.59 0.4-0.3 0.8 0 1 0.29 1-0.79 2-1.59 2.9-2.4-2.1-1.8-4.8-2.3-7.5-2.8-3.4 3.61-7.8 6.11-12.2 8.3-6.3 3.2-11.3 6.81-15.3 12.7-0.2 0.3-0.8 0-0.6-0.3 2.8-4.79 6.5-8.7 11.3-11.5 5.2-3.09 10.1-6.09 15.1-9.5-0.8-0.09-1.5-0.29-2.3-0.4-2.7 1.2-5.5 2.2-8.1 3.7-0.5 0.3-0.9-0.5-0.4-0.8 2-1.29 4.2-2.59 6.5-3.5-0.6-0.2-1.2-0.5-1.8-0.9-0.4-0.19-0.7-0.5-1.1-0.69 0 0-0.1 0-0.1 0.09-5.7 2.3-10.8 5.3-15 9.91-0.2 0.19-0.6-0.11-0.4-0.41 3.8-4.59 8.6-8.4 14.2-10.5-0.8-0.7-1.6-1.4-2.4-2.2-5.4 2.3-11.2 3-16.6 5.91-5.8 3.2-11.2 7.39-16.3 11.5-0.3 0.2-0.7-0.21-0.4-0.41 10-8.39 19.4-15.2 32.3-17.89-2-2-4-3.81-6.8-4.7-0.1 0-0.1 0-0.1-0.11-2.4 1.4-4.8 2.81-6.9 3.61-2.8 1-5.9 1.5-8.9 1.29-10.999 6.41-24.499 7.21-33.999 16.3-0.301 0.3-0.703-0.09-0.402-0.39 8.5-8.81 21-10.81 31.501-16.2-1.2-0.21-2.3-0.61-3.4-1-1.5-0.71-2.9-1.5-4.101-2.5v0.09c-1 1.11-2.5 1.61-3.899 2-1.902 0.61-3.699 1.2-5.601 1.8-0.301 0.11-0.399-0.39-0.098-0.5 1.699-0.69 3.399-1.5 5.098-2.19 1.301-0.61 2.699-1.41 4.101-1.7-0.902-0.8-1.601-1.61-2.3-2.61-5.399 1.81-10.5 4.31-14.899 8-0.301 0.2-0.703-0.19-0.402-0.39 4.402-3.8 9.199-6.71 14.601-8.61-0.601-0.89-1.199-1.89-1.699-3-3.402 2.31-7.5 3.31-11.101 5.2-4.5 2.41-8.7 5.5-12.801 8.61-0.199 0.09-0.399-0.2-0.301-0.31 3.602-2.89 7.102-5.89 11-8.3 4-2.39 8.402-4.09 12.602-6.09-0.399-0.91-0.801-1.8-1.102-2.8-11.199-0.31-20.098 4.3-28.098 12.09-2.601 2.5-4.8 5.41-7.699 7.71-1.703 1.39-4 2.5-5.402 4.09-3.199 3.7-2.399 7.3 0.101 10.5 1.7-1.7 3.801-3 5.7-4.39 0.3-0.2 0.601 0.3 0.3 0.5-1.902 1.39-3.601 3.09-5.402 4.59 0.203 0.21 0.301 0.41 0.5 0.5 0.703 0.8-0.199 2-1.098 1.5-3.601-2-5.3-6.29-4.3-10.29 0.601-2.41 2.101-4.3 4-6-1.899-1.21-2.899-4.11-3.5-6.11-1.2-4.3-1.2-9.6 0-13.89 0.101-0.41 0.8-0.41 0.8 0.09-0.3 3.7-0.5 7 0.801 10.5 1.098 3.2 2.399 5.11 4.199 7.5 2-1.5 4.098-3 5.7-4.59 8.3-8.8 19.5-16.71 32-15.41-5.5-1.8-11.301-2.2-16.899-0.7-0.402 0.11-0.601-0.5-0.203-0.6 5.902-1.79 11.703-2 17.602 0 0.101 0 0.199 0.1 0.3 0.21-0.199-0.5-0.3-1.11-0.402-1.61-9-3.89-18.699-3.1-28.297-2.8-0.402 0-0.402-0.7 0-0.7 9.098-0.5 19.199-2 27.899 1.5-0.102-0.39-0.2-0.89-0.301-1.3-2.801-0.7-5.399-2.2-8.199-3.09-3.399-1-6.801-1.3-10.399-1-0.402 0-0.5-0.71-0.101-0.8 5.699-0.81 13.101-0.2 18.398 2.89-0.598-3.7-1.098-7.3-1.5-10.5-0.098-0.8 1-0.89 1.102-0.09 0 0.09 0 0.29 0.101 0.39 2.797 0.7 5.5 0.81 8.199 1.9 2.1 0.8 4 2 5.8 3.41 0.2 0.19-0.1 0.5-0.3 0.3-2.2-1.71-4.601-3-7.3-3.61-2-0.5-4.2-0.19-6.2-0.69 0.598 4.19 1.5 8.89 2.899 13.19 0.101 0.11 0.301 0.11 0.402 0.2 0.199 0.11 0.297 0.2 0.297 0.3 0.902 0.4 1.902 0.9 2.902 1.2 2.098 0.61 4.4 0.61 6.5 0.41 0.3 0 0.4 0.5 0.1 0.59-3.3 0.5-6.502 0.61-9.502-0.5 1.102 3 2.5 5.8 4.301 8.11h0.101c3.2 1.59 6.1 2.59 9.7 2.09 2.8-0.4 5-2.09 7.6-2.79 0.2-0.11 0.3 0.29 0.1 0.29-3.4 1.21-5.4 3.41-9.2 3.6-2 0.11-4.1-0.1-6.1-0.8 4 3.8 9.4 5.5 16.9 3.5 7.9-2.09 18.6-12.7 26.4-4.59 0.8 0.89-0.5 2.2-1.3 1.29-4.4-4.2-9.5-2.29-14.3 0.41 4.1 0.89 6.8 5.89 10 8.3 3.6 2.79 7.1 3 11.3 4.2 2 0.5 3.5 1.3 4.8 2.89v0.11c2.8-2.5 5.5-5.11 8.7-7.61 5.9-4.7 12.8-7.39 19.5-10.59 0.9-0.41 1.7-0.8 2.6-1.3-7.8-0.91-16.3-1.5-23.4 1.59-4.9 2.1-9.3 6.21-14.6 3.1-0.7-0.39-0.1-1.39 0.6-1.1 5.6 2.8 10.1-2.5 14.9-4.4 1.9-0.69 3.9-1.1 5.9-1.39 6.6-1 13.4-0.8 19.9 0.39 9.1-5 17.4-11.3 24.5-18.8-1.5 1.2-3.1 2.3-4.7 3.3-0.4 0.31-0.9-0.39-0.5-0.69 6.4-5.2 12.7-9.5 16.2-17.41 0.2-0.29 0.7-0.09 0.6 0.3-0.6 1.5-1.3 3-2.1 4.41 0 0.09 0 0.2-0.1 0.39-9.3 14.4-22.3 25.9-37.8 33.4-1.6 0.8-3.2 1.5-4.7 2.3 2 1.91 3.7 4.2 5.9 5.91 3 2.29 6.5 3.79 10 5.39 0.2 0.11 0.1 0.5-0.2 0.4-3.3-1.2-6.5-2.4-9.5-4.2s-5-4.7-7.8-6.8c-6.5 3.1-12.6 6.3-18 11.5-4.7 4.5-9.5 9.91-16.1 11 8.2 5.41 16 8.21 26.3 5.71 9-2.21 18.2-5.5 26.4-9.71 7.1-3.7 13.7-8.7 18.8-14.79 1.4-1.61 2.5-3.3 3.5-5 0-0.21 0.1-0.3 0.2-0.41 0.1-0.09 0.1-0.2 0.1-0.3-5.3-0.59-9-4.79-13.2-7.9-0.5-0.39 0-1.19 0.5-0.8 4.2 2.8 8.4 6.8 13.6 6.91 0.8-1.71 1.6-3.5 2.2-5.3 0-0.11 0-0.2 0.1-0.2 1.2-3.3 2.3-6.71 3.7-10.11 0.2-0.6 1.2-0.39 1 0.31-0.1 0.19-0.1 0.5-0.2 0.69 4.5 1.61 9.9 1.7 14.7 1.81 0.4 0 0.4 0.59 0 0.59-3.6 0-7.2 0-10.8-0.09-1.5-0.11-3.3 0.09-4.4-0.91-0.7 2.5-1.2 5.1-1.9 7.71 3.9 0.79 7.8 1.09 11.8 0.79 3.6-0.29 7-1.5 10.6-1.29 0.2 0 0.2 0.39 0 0.39-4.2 0.11-8.2 1.9-12.4 2.31-3.5 0.3-7 0-10.4-0.7-0.3 1-0.6 1.89-1 2.89-0.4 0.9-0.8 1.7-1.2 2.61v0.09c-0.2 0.3-0.4 0.7-0.6 1 7.7 1.91 14.8 1.3 22.6-0.2 5.7-1.1 11.2-2.1 16.9-0.5 0.3 0.11 0.2 0.5-0.1 0.4-8.6-1.5-16.1 1.71-24.4 3-5.4 0.8-10.7 0.41-16-1-1.1 1.8-2.3 3.6-3.6 5.21-1.2 1.5-2.6 3-4 4.39 6.4 1.4 13.1 3.31 19.7 2.61 0.3 0 0.4 0.5 0.1 0.5-6.7 1-14.4-0.11-20.9-2-3 2.79-6.3 5.29-9.7 7.5 7.9 4.39 15.9 5.09 24.8 4.59 0.4 0 0.4 0.61 0 0.61-9.7 0.89-17.4 0.8-26.1-4.11-0.1-0.09-0.2-0.09-0.2-0.2-1.7 1-3.5 2-5.2 2.9-2.2 1.1-4.6 2.21-7 3.21 4.3 1.59 8.3 3.7 12.9 4.5 0.4 0.09 0.2 0.7-0.2 0.59-4.8-0.7-10.4-1.39-14.6-4.3-3.1 1.3-6.3 2.5-9.5 3.5 2.7 1.21 5.5 1.8 8.5 1.8 0.6 0 0.6 0.91 0 1-3.5 0.2-7-0.39-10.2-2.09-0.1 0-0.1-0.11-0.2-0.11-2.5 0.7-5.1 1.31-7.6 1.7 0.2 0.5 0.4 1.11 0.6 1.61 11.2 13.09 33.5 9.09 49.1 9.59 1.7 0.1 1.7 2.71 0 2.71-3.1 0-6.5 0.09-10 0.2 1.2 1.8 2.7 3.5 4.5 4.8 0.3 0.2 0 0.7-0.3 0.5-2.3-1.3-4.3-3-5.8-5.3-5.1 0-10.4-0.11-15.5-0.7 3.1 6.79 6.5 13.89 13.1 18 0.3 0.2 0 0.7-0.3 0.5-7.4-3.8-11.2-10.91-14.5-18.21-0.1-0.2-0.1-0.4 0-0.5-7.4-1.2-14.2-3.59-19.2-8.4 0.7 2.4 1.5 4.81 2.9 7 2.2 3.61 4.7 6.7 5.5 10.9 0.1 0.6-0.7 0.8-0.9 0.21-1.2-4.5-4.4-7.71-6.7-11.61-1.9-3.19-2.6-6.89-3.9-10.3 0.3 2.61 0.3 5.3 0.9 7.91 0.8 3.7 1.9 7.29 3 10.89 0.1 0.5-0.6 0.7-0.8 0.2-1.1-3.59-2.4-7.2-3.4-10.8-0.8-2.9-0.9-5.9-1.4-8.79-1.1 0.09-2.2 0.09-3.3 0-1.4 5.59-0.2 12.09 0.4 17.79 0 0.41-0.6 0.5-0.7 0.1-0.8-5.89-2.6-12-1.5-18-1.2-0.1-2.5-0.3-3.7-0.6 3.1 13.71-2.4 28.6-7.3 40.8 0 0 0.1 0 0.1 0.11 0.1 0 0.2 0 0.3 0.19 3 1.81 5.9 3.9 9.3 5.5 8.9 4.31 19.4 2.2 26.6-4.19-1.7-3.5-3-7.41-4.3-11.11-0.1-0.39 0.5-0.59 0.6-0.3 1.7 3.41 3.5 6.8 4.9 10.3 0.3-0.2 0.6-0.09 0.8 0.11h0.1c8.7 2.09 16.7-1 23.4-6.61 0-0.3-0.1-0.5-0.1-0.8-0.1-0.5 0.6-0.7 0.8-0.2 0 0.11 0.1 0.2 0.1 0.3 6.7-5.89 11.8-14.1 14.4-21.8-0.3 0-0.6 0-0.8-0.09-1-0.21-0.8-1.5 0-1.8 10.4-4.31 17.4-16.11 22-25.91 1.8-3.9 3-9 5.8-12.4 2.6-3.1 6.7-3 9.7-5.6 0-0.79 0.5-0.5 0.3-0.09zm-204.1-35.41c1.797-1.59 3.797-3.09 5.899-4.09-5.7 1.8-11.102 4.5-16.899 6 4-0.41 7.797-1.11 11-1.91zm-14.801 2.21c5.5-2 11.098-3.61 16.5-5.91 3.2-1.39 6.2-2.8 9.7-3.09-0.7-0.3-1.399-0.5-2-0.8 0 0.39-0.301 0.89-0.899 0.89-12.301 1.11-23.801 4.61-35.601 7.91 3.8 0.89 8.101 1.09 12.3 1zm-14.101-1.5c11.5-4.5 23.801-8.21 36.101-9.11-2.3-0.89-4.601-1.89-6.902-2.8-0.098 0.3-0.297 0.7-0.797 0.7-12.902 1.3-25.703 3.1-38.601 4.41-0.5 0-0.5-0.61-0.102-0.81 11.5-3.6 25.102-5.19 37.203-5.3-2.402-1-4.902-2-7.301-3.09-10.402 3.09-21.601 2.39-31.8 6.09 0.3 0.61 0.699 1.11 1 1.7 2.398 4.21 6.5 6.8 11.199 8.21zm-12.399-10.3c9.5-3.61 19.801-4.91 29.801-6.61-0.902-0.39-1.801-0.8-2.703-1.09-10.398-1.11-18.797 2.79-28.297 5.79 0.399 0.6 0.797 1.21 1.199 1.91zm-1.699-2.7c7.5-3.3 15.598-7.11 23.899-7.11-0.2-0.1-0.301-0.1-0.5-0.19-1.102-0.5-2.2-0.91-3.301-1.31-6.899 3-15.199 3.2-22.598 4.7 0.797 1.3 1.699 2.61 2.5 3.91zm-2.902-4.71c6.5-2.5 13.801-3.09 20.699-4.79-2.098-0.71-4.297-1.41-6.398-2-0.102 0.2-0.2 0.39-0.5 0.39-4.899 1.5-10.7 2.7-15.899 2.2 0.199 0.41 0.5 0.91 0.699 1.3 0.301 1.11 0.801 2 1.399 2.9zm-2.801-5.2c5-0.5 9.801-1 14.703-2.2-2.801-0.69-5.703-1.39-8.5-2-0.101 0.11-0.203 0.2-0.402 0.31-2.5 0.59-5.098 0.8-7.6995 0.8 0.6993 1 1.3985 2 1.8985 3.09zm-2.3985-3.89c1.8985-0.31 3.6995-0.61 5.6015-0.91-2.5-0.5-4.9999-1.09-7.4999-1.59 0.5977 0.69 1.2969 1.59 1.8984 2.5zm0-4.41c3.6015 0.71 7.1995 1.41 10.7 2.21-0.2-0.21-0.302-0.5-0.501-0.71-0.699-0.9-1.301-1.9-1.801-3-2.598 1.21-5.5 1.5-8.3985 1.5zm9.1995-1.7c0.601 0.8 1.199 1.61 1.801 2.41 0.398 0.59 1.199 1.2 1.5 1.89 2.398 0.61 4.8 1.2 7.199 1.9-2.399-2.79-4.199-6-5.598-9.29-1.601 1.09-3.203 2.2-4.902 3.09zm5.5-3.7c2 3.9 4.5 7.2 7.402 10.61 1.5 0.5 2.899 0.89 4.399 1.5-1.102-2.3-2.2-4.71-3.399-7-1.203-2.41-2.402-6-4.5-7.91-1.402 0.8-2.601 1.8-3.902 2.8zm4.801-3.39c1.898 1.5 2.8 4 4 6 1.8 3.29 3.601 6.5 5.199 9.79 0.101 0.21 0.101 0.3 0.101 0.5 0.598 0.21 1.2 0.41 1.801 0.71 1.797 0.7 3.5 1.5 5.297 2.29-2.098-3.2-4-6.5-6.098-9.7-2.3-3.7-5-7.09-7.3-10.8-1.102 0.21-2.102 0.71-3 1.21zm3.601-1.5c5.699 6.2 11.399 14.09 15 21.59v0.11c1.399 0.59 2.699 1.19 4.098 1.8-0.899-4.3-4-9-5.801-12.8-1.898-4-4-7.91-6.199-11.81-0.699 0.31-1.399 0.61-2.098 1.11-0.402 0.29-0.801 0.09-0.902-0.21-1.5-0.09-2.899 0-4.098 0.21zm7.5-1.21c3.297 4.71 6.399 9.5 8.899 14.6 1.5 3.11 2.601 8.11 4.601 11 0.699 0.31 1.5 0.7 2.199 1-2.8-9.8-7.5-18.19-12.199-27.19-1.101 0-2.301 0.19-3.5 0.59zm4.598-0.5c6.402 7.71 10.402 18 13.199 27.5 0.102 0.21 0 0.41 0 0.5 1.301 0.6 2.5 1.1 3.801 1.71-2.699-10.11-5.899-18.91-11-28.11-2-0.8-4-1.39-6-1.6zm7.101 2.1c6 7.9 10.5 18.2 11.7 28 0 0.2 0 0.31-0.102 0.4 1.301 0.6 2.602 1.21 3.801 1.71-1.699-9.3-3.801-18.11-7.801-26.71-0.398-0.09-0.797-0.29-1.199-0.5-2.098-0.79-4.199-1.9-6.399-2.9zm8.598 3.81c4.5 8.39 7.801 17.59 8.5 27.19 0.902 0.4 1.801 0.81 2.703 1.31-0.101-0.31 0-0.81 0.297-1.5v-3.7c-0.098-2.41-0.398-4.8-0.797-7.21-0.703-4.09-2.101-8-3.402-11.9-0.399-0.39-0.801-0.8-1.301-1.19-1.699-1.5-3.797-2.31-6-3zm8.703 5.5c2.098 4.3 3.399 9.19 4 13.89 0 0.3 0.098 0.61 0.199 0.91v-4.8-2.81c-1-2.6-2.402-5.1-4.199-7.19zm4.399 23.69c0.3 0.2 0.699 0.31 1 0.5-0.2-0.69-0.301-1.39-0.5-2.1-0.102 0.6-0.301 1.21-0.5 1.6zm1.3 1.7c-0.601-0.3-1.3-0.5-1.902-0.8 0.102 0.3 0.102 0.71-0.297 0.91 0.797 0 1.5 0 2.297 0.19 0-0.1-0.098-0.19-0.098-0.3zm-15.199 6.61c-11.203 3.8-26.301 5.19-36.402-1.5-1.899-1.31-3.399-2.81-4.5-4.81-0.699-1.3-0.899-3-1.699-4.3-0.801-1.3-2.2-2.2-3-3.5-1.602-2.5-2.102-5.59-3.602-8.09-1.7969-3-4.0977-5.71-6.5977-8.11h-0.1015c-0.3985-0.1-0.5977-0.39-0.6993-0.69-0.30075-0.31-0.59762-0.5-0.89841-0.81-1.1016-0.89 0.5-2.5 1.5977-1.6 0.1015 0.1 0.3007 0.21 0.4023 0.41 0.0977-0.11 0.2969-0.2 0.5-0.2 4.0977-0.3 8.4999 0.39 12.5-1 2.199-0.8 4-2.11 5.797-3.41 0-0.2 0.203-0.39 0.5-0.3 0.5-0.4 1-0.79 1.602-1.2 3.601-2.59 7.398-4.7 11.898-3.5 7.402-5.09 14.902 0 22 3 3.703 1.61 7.203 2.3 10.102 5.41 1.601 1.59 3.101 3.59 4.199 5.7-0.098-2.5-0.199-4.91-0.399-7.41-0.3-3.9-1.8-7.29-2.199-11-0.703-5.2 0.797-12.5 4.797-16.2 0.602-0.59 1.402 0.3 0.902 0.91-4.699 5.29-4.199 13.2-2.5 19.5 1.301 5.09 1.399 10.39 1.5 15.59 0.2 6.5-0.699 13.61 1.598 19.8 2.301 6.2 6.5 14 13.5 15.11 1.301 0.2 1 2.29-0.297 2.2-0.203 0-0.402-0.11-0.601-0.11 0.601 0.41 1.199 0.91 1.699 1.5 0.402 0.5-0.098 1.3-0.699 0.91-6.7-3.71-14.2-4.3-21.801-4.61-0.5 0-0.399-0.69 0-0.69 4.402-0.5 8.699-0.31 13 0.5 0.902 0.19 1.801 0.3 2.801 0.5-3.2-2.11-5.399-5.61-7.399-9.31-0.801-1.39-1.301-2.69-1.801-4.1-8 0.1-16.699 5.6-18.402 13.8-0.797 3.8-0.598 7.11-1.699 10.3 2.301-1 4.801-1.19 7.301-0.8 0.601 0.11 0.398 1.11-0.102 1-2.699-0.2-5.098 0.3-7.598 1.3h-0.199c-0.402 0.81-0.801 1.61-1.402 2.4-0.699 0.91-2.199 0.1-1.5-0.9 4.301-6.89 1.902-14.8 7.699-21-0.098-0.39 0-0.5 0.203-0.69zm5.899-84.21c0.5-0.29 1-0.6 1.5-1s0.898-0.9 1.3-1.29c0.598-0.5-0.402-1.41-0.902-0.71-0.297 0.5-0.797 0.9-1.098 1.3-0.402 0.41-0.699 0.8-1.199 1.1-0.203 0.31 0.098 0.81 0.399 0.6zm17.898-152.29c-0.098-0.204-0.398 0-0.297 0.199 0.699 1.597 1.5 3.5 3.098 4.301 0.5 0.296 1.101-0.403 0.699-0.801-1.297-1.199-2.699-2.102-3.5-3.699zm26.402 126.29c-0.6-0.5 0.3-1.4 0.8-0.79 1.2 1.29 2.1 2.79 2.9 4.29 0.2 0.4-0.3 0.71-0.5 0.3-1-1.4-2-2.59-3.2-3.8" style="fill: rgb(66, 66, 66);"/>
  </g>
 </g>
</svg>